<?xml version="1.0" standalone="no"?>
<!DOCTYPE svg PUBLIC "-//W3C//DTD SVG 1.1//EN" "http://www.w3.org/Graphics/SVG/1.1/DTD/svg11.dtd" >
<svg xmlns="http://www.w3.org/2000/svg">
<metadata>
This is a custom SVG webfont generated by Font Squirrel.
Copyright   : Copyright c 2008 by Eduardo Manso All rights reserved
Designer    : Eduardo Manso
Foundry     : Eduardo Manso
Foundry URL : httpwwwemtypenet
</metadata>
<defs>
<font id="GeogrotesqueSemibold" horiz-adv-x="1150" >
<font-face units-per-em="2048" ascent="1536" descent="-512" />
<missing-glyph horiz-adv-x="397" />
<glyph unicode=" "  horiz-adv-x="397" />
<glyph unicode="&#x09;" horiz-adv-x="397" />
<glyph unicode="&#xa0;" horiz-adv-x="397" />
<glyph unicode="!" horiz-adv-x="567" d="M143 51v166q0 51 50 51h178q49 0 49 -51v-166q0 -51 -49 -51h-178q-50 0 -50 51zM143 799v540q0 53 52 54h180q49 0 49 -54v-540l-27 -375q0 -51 -49 -51h-127q-49 0 -49 51z" />
<glyph unicode="&#x22;" horiz-adv-x="874" d="M123 1339q-6 53 49 54h166q53 0 47 -54l-20 -333q0 -51 -50 -52h-120q-49 0 -50 52zM489 1339q-6 53 50 54h163q55 0 50 -54l-23 -333q0 -51 -49 -52h-119q-51 0 -51 52z" />
<glyph unicode="#" horiz-adv-x="1388" d="M137 420v90q0 47 51 47h142l43 154h-86q-53 0 -54 49v90q0 47 54 47h141l45 160q14 53 64 53h120q51 0 37 -53l-47 -160h252l45 160q16 53 64 53h120q51 0 37 -53l-45 -160h80q51 0 51 -47v-90q0 -49 -51 -49h-135l-43 -154h80q53 0 53 -47v-90q0 -51 -53 -51h-135 l-45 -160q-14 -51 -62 -51h-121q-55 0 -37 51l46 160h-252l-45 -160q-14 -51 -62 -51h-123q-53 0 -35 51l45 160h-88q-51 0 -51 51zM549 557h252l45 154h-252z" />
<glyph unicode="$" horiz-adv-x="1097" d="M137 432v47q0 47 47 47h152q47 0 47 -47v-35q0 -86 164 -86q166 0 166 86v35q0 47 -92 78l-297 109q-63 25 -112.5 85t-49.5 132v65q0 92 63.5 165t200.5 97v129q0 53 49 54h172q47 0 47 -54v-131q131 -27 191.5 -98.5t60.5 -161.5v-39q0 -27 -10 -37t-37 -10h-151 q-45 0 -46 47v39q0 84 -149 84q-147 0 -147 -84v-22q0 -53 63 -72l295 -104q197 -70 197 -213v-105q0 -86 -67 -155.5t-200 -96.5v-127q0 -53 -47 -53h-172q-49 0 -49 53v123q-147 23 -218 93.5t-71 162.5z" />
<glyph unicode="%" horiz-adv-x="1779" d="M137 979v201q0 229 319.5 229t319.5 -229v-201q0 -229 -319.5 -229t-319.5 229zM356 987q0 -63 100.5 -63t100.5 63v184q0 61 -100.5 61.5t-100.5 -61.5v-184zM439 18.5q-7 18.5 3 34.5l658 1286q23 53 74 54h141q25 0 31 -16.5t-7 -37.5l-655 -1286q-27 -53 -74 -53 h-143q-21 0 -28 18.5zM1004 209v201q0 229 319 229t319 -229v-201q0 -229 -319 -229t-319 229zM1223 219q0 -63 100 -63q98 0 98 63v184q0 61 -98 62q-100 0 -100 -62v-184z" />
<glyph unicode="&#x26;" horiz-adv-x="1425" d="M127 309v183q0 170 172 233q-154 51 -154 213v145q0 326 457 326q461 0 461 -334v-65q0 -51 -47 -52h-172q-49 0 -49 52v26q0 152 -191 152q-188 0 -188 -152v-57q0 -152 200 -152h691q51 0 51 -49v-121q0 -51 -51 -51h-121v-289q0 -147 -122 -240t-411 -93 q-526 -1 -526 325zM397 356q0 -152 260.5 -151.5t260.5 151.5v250h-320q-201 0 -201 -149v-101z" />
<glyph unicode="'" horiz-adv-x="507" d="M123 1339q-6 53 49 54h166q53 0 47 -54l-20 -333q0 -51 -50 -52h-120q-49 0 -50 52z" />
<glyph unicode="(" horiz-adv-x="731" d="M127 -143v1290q0 143 109.5 223t328.5 80h19q51 0 51 -51v-119q0 -51 -51 -51h-19q-162 0 -162 -111v-1233q0 -111 162 -110h19q51 0 51 -51v-119q0 -51 -51 -51h-19q-219 0 -328.5 80t-109.5 223z" />
<glyph unicode=")" horiz-adv-x="731" d="M94 -276q0 51 51 51h21q86 0 123 26.5t37 83.5v1233q0 57 -37 84t-123 27h-21q-51 0 -51 51v119q0 51 51 51h21q219 0 328.5 -80t109.5 -223v-1290q0 -143 -109.5 -223t-328.5 -80h-21q-51 0 -51 51v119z" />
<glyph unicode="*" horiz-adv-x="1107" d="M154 844q-27 45 22 67l213 99l-213 100q-49 20 -22 68l41 77q27 47 69 19l219 -141l-18 266q-6 51 49 51h88q51 0 49 -51l-20 -260l213 135q43 33 69 -17l41 -79q27 -51 -22 -68l-213 -100l213 -99q49 -18 22 -67l-41 -82q-25 -47 -69 -17l-211 134l18 -240 q2 -53 -49 -53h-90q-53 0 -47 53l16 248l-217 -142q-45 -27 -69 19z" />
<glyph unicode="+" horiz-adv-x="1146" d="M121 633v121q0 49 51 49h291v291q0 53 47 53h121q51 0 51 -53v-291h291q53 0 53 -49v-121q0 -51 -53 -51h-291v-289q0 -51 -51 -51h-121q-47 0 -47 51v289h-291q-51 0 -51 51z" />
<glyph unicode="," horiz-adv-x="593" d="M76 -90q-16 47 33 63q53 18 72.5 43t19.5 64v137q0 51 51 51h176q47 0 47 -51v-151q0 -233 -295 -304q-49 -12 -65 33z" />
<glyph unicode="-" horiz-adv-x="892" d="M121 530v121q0 49 51 49h549q51 0 51 -49v-121q0 -49 -51 -49h-549q-51 0 -51 49z" />
<glyph unicode="." horiz-adv-x="512" d="M119 51v166q0 51 51 51h174q49 0 49 -51v-166q0 -51 -49 -51h-174q-51 0 -51 51z" />
<glyph unicode="/" horiz-adv-x="749" d="M29 -250l407 1628q12 53 60 54h186q51 0 39 -54l-406 -1628q-14 -53 -59 -53h-188q-51 0 -39 53z" />
<glyph unicode="0" d="M98 317v758q0 145 114 239.5t363 94.5q248 0 363 -94t115 -240v-758q0 -145 -115 -239t-363 -94q-250 0 -363.5 94t-113.5 239zM375 367q0 -154 200.5 -154t200.5 154v659q0 154 -200.5 154t-200.5 -154v-659z" />
<glyph unicode="1" d="M133 51v129q0 49 51 49h279v897l-277 -45q-53 -10 -53 43v136q0 49 53 55l504 92q14 2 23.5 -1t17.5 -14.5t8 -33.5v-1129h269q51 0 51 -49v-129q0 -51 -51 -51h-824q-51 0 -51 51z" />
<glyph unicode="2" d="M104 950v125q0 145 110 239.5t357.5 94.5t360 -94t115.5 -240v-162q0 -231 -195 -311l-346 -143q-37 -16 -53.5 -26.5t-29.5 -33t-13 -55.5v-115h594q51 0 51 -49v-129q0 -51 -51 -51h-820q-53 0 -53 51v377q0 53 23.5 92t48 54.5t67.5 35.5l420 176q82 33 82 119v125 q0 154 -201 154q-199 0 -198 -154v-80q0 -51 -47 -51h-170q-52 0 -52 51z" />
<glyph unicode="3" d="M96 317v66q0 51 49 51h170q49 0 50 -51v-27q0 -152 204 -151q201 0 201 151v101q0 150 -201 149h-157q-51 0 -52 51v121q0 49 52 49h139q201 0 201 152v57q0 152 -187 152q-190 0 -190 -152v-26q0 -51 -51 -52h-170q-47 0 -48 52v65q0 334 461 334q457 0 457 -326v-145 q0 -162 -154 -213q172 -63 172 -233v-183q0 -143 -108.5 -234t-362.5 -91t-364.5 94t-110.5 239z" />
<glyph unicode="4" d="M68 428v131q0 23 4 29l235 751q12 53 62 54h178q53 0 37 -54l-232 -731h391v731q0 53 50 54h178q49 0 49 -54v-1286q0 -53 -49 -53h-178q-49 0 -50 53v326h-624q-51 0 -51 49z" />
<glyph unicode="5" d="M102 315v66q0 51 50 51h170q51 0 51 -51v-25q0 -154 198 -153q201 0 201 153v174q0 143 -201 144h-366q-47 0 -47 53v612q0 53 47 54h749q53 0 54 -50v-129q0 -51 -54 -51h-520v-268h139q246 0 361 -91t115 -235v-254q0 -147 -110 -240t-363.5 -93t-363.5 93t-110 240z " />
<glyph unicode="6" d="M113 317v760q0 143 107.5 237.5t353 94.5t350 -94t104.5 -238v-53q0 -51 -51 -51h-170q-27 0 -37 11t-10 40v14q0 150 -187 150q-188 0 -188 -150v-250q92 63 229 64q219 0 323.5 -96.5t104.5 -239.5v-199q0 -145 -108.5 -239t-358.5 -94q-248 0 -355 94t-107 239z M385 358q0 -154 190 -153q193 0 193 153v119q0 152 -193 152q-184 0 -190 -140v-131z" />
<glyph unicode="7" d="M86 1214v129q0 49 51 50h891q51 0 51 -50v-126q0 -18 -10 -39l-496 -1125q-23 -53 -65 -53h-201q-61 0 -35 53l494 1110h-629q-51 0 -51 51z" />
<glyph unicode="8" d="M113 317v187q0 156 174 219q-154 61 -154 217v135q0 334 442 334q440 0 441 -334v-135q0 -156 -154 -217q176 -63 176 -219v-187q0 -145 -107.5 -239t-355 -94t-355 93t-107.5 240zM385 358q0 -154 190.5 -153.5t190.5 153.5v103q0 78 -45 113.5t-145.5 35.5 t-145.5 -35.5t-45 -113.5v-103zM403 983q0 -80 38 -117t134 -37q94 0 133.5 37t39.5 117v51q0 80 -39 117t-134 37q-96 0 -134 -37t-38 -117v-51z" />
<glyph unicode="9" d="M109 877v198q0 145 108.5 239.5t357.5 94.5q248 0 355.5 -94t107.5 -240v-760q0 -143 -107.5 -237t-353 -94t-350 94t-104.5 237v54q0 51 51 51h170q47 0 47 -51v-15q0 -150 186.5 -149.5t186.5 149.5v248q-86 -61 -227 -61q-217 0 -322.5 96.5t-105.5 239.5zM381 915 q0 -152 194 -151q188 0 189 149v123q0 152 -189 152q-195 0 -194 -154v-119z" />
<glyph unicode=":" horiz-adv-x="512" d="M119 51v166q0 51 51 51h174q49 0 49 -51v-166q0 -51 -49 -51h-174q-51 0 -51 51zM119 801v168q0 51 51 51h174q49 0 49 -51v-168q0 -51 -49 -51h-174q-51 0 -51 51z" />
<glyph unicode=";" horiz-adv-x="593" d="M76 -90q-16 47 33 63q53 18 72.5 43t19.5 64v137q0 51 51 51h176q47 0 47 -51v-151q0 -233 -295 -304q-49 -12 -65 33zM201 801v168q0 51 51 51h176q47 0 47 -51v-168q0 -51 -47 -51h-176q-51 0 -51 51z" />
<glyph unicode="&#x3c;" horiz-adv-x="1071" d="M121 598v193q0 35 47 55l731 315q25 8 38 -7t13 -44v-164q0 -39 -51 -57l-516 -197l516 -192q51 -18 51 -58v-166q0 -63 -51 -49l-731 316q-16 6 -23.5 10t-15.5 16.5t-8 28.5z" />
<glyph unicode="=" horiz-adv-x="1189" d="M121 389v123q0 47 51 47h844q51 0 51 -47v-123q0 -51 -51 -51h-844q-51 0 -51 51zM121 807v123q0 49 51 49h844q51 0 51 -49v-123q0 -49 -51 -49h-844q-51 0 -51 49z" />
<glyph unicode="&#x3e;" horiz-adv-x="1071" d="M121 276v166q0 41 51 58l516 192l-516 197q-51 16 -51 57v164q0 29 13 44t38 7l731 -315q45 -18 45 -55v-193q0 -37 -45 -55l-731 -316q-51 -14 -51 49z" />
<glyph unicode="?" horiz-adv-x="1157" d="M104 950v125q0 145 112 239.5t359.5 94.5t361.5 -94t116 -240v-96q0 -233 -191 -317l-117 -54q-47 -23 -66.5 -45t-19.5 -69v-72q0 -27 -10 -38t-37 -11h-180q-49 0 -49 49v141q0 78 34 117t95 68l188 96q78 43 78 125v61q0 154 -202.5 154t-202.5 -154v-80 q0 -51 -47 -51h-170q-52 0 -52 51zM383 51v166q0 51 49 51h180q47 0 47 -51v-166q0 -51 -47 -51h-180q-49 0 -49 51z" />
<glyph unicode="@" horiz-adv-x="1953" d="M143 156v718q0 76 16.5 136.5t70 124t142.5 105.5t242.5 68.5t362.5 26.5q258 0 432 -37.5t258 -108.5t114.5 -144.5t30.5 -170.5v-479q0 -328 -380 -327q-223 0 -304 127q-143 -127 -323 -127q-279 0 -252 299l25 272q27 299 288 299q133 0 277 -100l6 32q8 51 55 52 h150q49 0 43 -52l-43 -421q-4 -51 -2 -93.5t25.5 -68t70.5 -25.5q61 0 82.5 44t21.5 126v430q0 86 -43 138.5t-173 85t-359 32.5t-358.5 -32.5t-172.5 -85t-43 -138.5v-694q0 -86 43 -139.5t172.5 -86t358.5 -32.5h358q53 0 54 -51v-115q0 -51 -54 -51h-358 q-209 0 -362.5 27.5t-242.5 69.5t-142.5 105.5t-70 124t-16.5 136.5zM817 412q-4 -45 19.5 -72t83.5 -27q63 0 167 49v13l27 260q-94 68 -164 67q-104 0 -116 -116z" />
<glyph unicode="A" horiz-adv-x="1132" d="M31 51l383 1290q18 51 63 52h178q47 0 66 -52l381 -1290q5 -13 4 -22q0 -29 -41 -29h-184q-47 0 -60 51l-71 250h-381l-72 -250q-16 -51 -61 -51h-166q-43 0 -43 30q0 9 4 21zM428 520h260l-67 228q-35 135 -60 374q-33 -270 -63 -372z" />
<glyph unicode="B" horiz-adv-x="1216" d="M143 53v1286q0 53 50 54h374q262 0 379 -84t117 -226v-120q0 -158 -154 -230q217 -76 217 -248v-161q0 -143 -117.5 -233.5t-377.5 -90.5h-438q-50 0 -50 53zM420 221h211q223 0 223 152v92q0 66 -60.5 103.5t-162.5 37.5h-211v-385zM420 815h153q215 0 215 154v71 q0 74 -55 102.5t-166 28.5h-147v-356z" />
<glyph unicode="C" horiz-adv-x="1165" d="M121 317v758q0 145 111.5 239.5t369.5 94.5t369.5 -94t111.5 -240v-98q0 -51 -47 -51h-170q-51 0 -51 51v49q0 154 -209 154q-207 0 -207 -154v-659q0 -154 207 -154q209 0 209 154v77q0 51 51 52h170q47 0 47 -52v-127q0 -145 -111.5 -239t-369.5 -94t-369.5 94 t-111.5 239z" />
<glyph unicode="D" horiz-adv-x="1259" d="M143 53v1286q0 53 50 54h446q258 0 379 -95.5t121 -238.5v-725q0 -143 -121 -238.5t-379 -95.5h-453q-43 2 -43 53zM420 229h219q223 0 223 154v627q0 154 -223 153h-219v-934z" />
<glyph unicode="E" horiz-adv-x="1048" d="M143 53v1286q0 53 50 54h700q51 0 51 -50v-129q0 -51 -51 -51h-473v-332h438q53 0 53 -49v-123q0 -49 -53 -49h-438v-381h493q51 0 52 -49v-129q0 -51 -52 -51h-720q-50 0 -50 53z" />
<glyph unicode="F" horiz-adv-x="1060" d="M143 53v1286q0 53 50 54h749q51 0 51 -50v-129q0 -51 -51 -51h-522v-332h487q51 0 51 -49v-131q0 -51 -51 -51h-487v-547q0 -53 -49 -53h-178q-50 0 -50 53z" />
<glyph unicode="G" horiz-adv-x="1189" d="M121 317v758q0 145 111.5 239.5t369.5 94.5t369.5 -94t111.5 -240v-82q0 -51 -47 -51h-170q-51 0 -51 51v33q0 154 -209 154q-207 0 -207 -154v-659q0 -154 207 -154q209 0 209 152v137h-201q-53 0 -53 49v131q0 49 53 49h418q51 0 51 -49v-365q0 -145 -111.5 -239 t-369.5 -94t-369.5 94t-111.5 239z" />
<glyph unicode="H" horiz-adv-x="1280" d="M143 53v1286q0 53 50 54h178q49 0 49 -54v-510h442v510q0 53 49 54h179q49 0 49 -54v-1286q0 -53 -49 -53h-179q-49 0 -49 53v547h-442v-547q0 -53 -49 -53h-178q-50 0 -50 53z" />
<glyph unicode="I" horiz-adv-x="561" d="M143 53v1286q0 53 50 54h178q49 0 49 -54v-1286q0 -53 -49 -53h-178q-50 0 -50 53z" />
<glyph unicode="J" horiz-adv-x="1054" d="M33 317v123q0 51 51 52h172q49 0 49 -52v-73q0 -154 176 -154q88 0 126 37t38 117v972q0 53 49 54h178q49 0 50 -54v-1022q0 -334 -441 -333q-240 0 -344 94t-104 239z" />
<glyph unicode="K" horiz-adv-x="1196" d="M143 51v1290q0 51 50 52h178q49 0 49 -52v-550h33l364 550q39 51 82 52h191q27 0 32.5 -15.5t-8.5 -36.5l-428 -632l481 -658q10 -12 10 -23q0 -6 -2 -12q-7 -16 -34 -16h-228q-43 0 -73 51l-385 537h-35v-537q0 -51 -49 -51h-178q-50 0 -50 51z" />
<glyph unicode="L" horiz-adv-x="976" d="M143 53v1286q0 53 50 54h178q49 0 49 -54v-1110h457q51 0 51 -49v-129q0 -51 -51 -51h-691q-43 2 -43 53z" />
<glyph unicode="M" horiz-adv-x="1527" d="M143 51v1290q0 51 50 52h161q33 0 45 -29l314 -715q18 -43 51 -143q29 86 53 141l303 721q10 25 47 25h170q49 0 49 -52v-1290q0 -51 -49 -51h-170q-49 0 -49 51v780q-35 -133 -59 -188l-156 -381q-23 -51 -67 -51h-146q-41 0 -65 51l-174 412q-16 35 -48 153v-776 q0 -51 -49 -51h-161q-50 0 -50 51z" />
<glyph unicode="N" horiz-adv-x="1280" d="M143 51v1290q0 51 50 52h161q35 0 43 -21l412 -706q29 -45 70 -144v819q0 51 49 52h162q49 0 49 -52v-1290q0 -51 -49 -51h-162q-39 0 -47 25l-396 677q-37 55 -82 168v-819q0 -51 -49 -51h-161q-50 0 -50 51z" />
<glyph unicode="O" horiz-adv-x="1239" d="M121 317v758q0 143 119.5 238.5t378 95.5t378 -95t119.5 -239v-758q0 -143 -119.5 -238t-378 -95t-378 95t-119.5 238zM399 367q0 -154 219 -154q221 0 222 154v659q0 154 -222 154q-219 0 -219 -154v-659z" />
<glyph unicode="P" horiz-adv-x="1187" d="M143 53v1286q0 53 50 54h430q258 0 376.5 -94.5t118.5 -239.5v-232q0 -145 -118.5 -239t-376.5 -94h-203v-441q0 -53 -49 -53h-178q-50 0 -50 53zM420 723h203q104 0 162.5 39t58.5 112v136q0 154 -221 153h-203v-440z" />
<glyph unicode="Q" horiz-adv-x="1236" d="M121 317v758q0 143 119.5 238.5t378 95.5t378 -95t119.5 -239v-758q0 -111 -68.5 -193.5t-216.5 -117.5l220 -194q22 -20 22 -40q0 -16 -16 -32l-90 -96q-17 -18 -36 -19q-16 0 -34 15l-377 350q-207 16 -303 107t-96 220zM399 360q0 -154 219 -153q221 0 222 153v672 q0 154 -222 154q-219 0 -219 -154v-672z" />
<glyph unicode="R" horiz-adv-x="1228" d="M143 53v1286q0 53 50 54h430q258 0 376.5 -94.5t118.5 -239.5v-195q0 -213 -225 -295l221 -516q8 -25 -5 -39t-42 -14h-180q-4 0 -8.5 1t-7.5 1t-6 3t-5 4t-5 5t-4 6.5t-4 7.5t-4 7t-4 9t-3 9l-201 477h-12h-203v-477q0 -53 -49 -53h-178q-50 0 -50 53zM420 760h203 q221 0 221 153v97q0 154 -221 153h-203v-403z" />
<glyph unicode="S" horiz-adv-x="1171" d="M102 317v129q0 53 50 54h172q49 0 49 -54v-92q0 -147 217 -147t217 147v66q0 59 -46 91t-128 60l-318 121q-78 29 -132 102.5t-54 161.5v119q0 145 108.5 239.5t356.5 94.5q250 0 361.5 -94t111.5 -240v-84q0 -51 -51 -51h-172q-47 0 -47 51v47q0 147 -199 148 q-201 0 -201 -148v-30q0 -80 84 -111l357 -127q242 -86 241 -295v-158q0 -145 -115.5 -239t-371.5 -94q-254 0 -372 95t-118 238z" />
<glyph unicode="T" horiz-adv-x="1009" d="M23 1214v129q0 49 51 50h860q51 0 51 -50v-129q0 -51 -51 -51h-291v-1110q0 -53 -49 -53h-178q-51 0 -51 53v1110h-291q-51 0 -51 51z" />
<glyph unicode="U" horiz-adv-x="1259" d="M131 317v1022q0 53 51 54h178q49 0 50 -54v-972q0 -154 219 -154q104 0 163.5 39t59.5 115v972q0 53 49 54h178q47 0 47 -54v-1022q0 -143 -119.5 -238t-377.5 -95t-378 95t-120 238z" />
<glyph unicode="V" horiz-adv-x="1132" d="M31 1341q-4 12 -4 21q0 30 43 31h194q47 0 60 -52l198 -696q29 -104 49 -297q20 174 56 295l198 698q12 51 62 52h178q41 0 41 -29q0 -10 -4 -23l-381 -1290q-18 -51 -66 -51h-178q-45 0 -63 51z" />
<glyph unicode="W" horiz-adv-x="1716" d="M29 1341q-2 10 -3 18q0 33 42 34h182q47 0 59 -52l172 -698q16 -66 33 -172q14 94 37 172l176 698q12 51 61 52h166q45 0 62 -52l172 -696q14 -57 33 -205q14 115 36 203l177 698q12 51 59 52h156q41 0 41 -34q0 -8 -2 -18l-326 -1290q-12 -51 -64 -51h-174q-45 2 -57 51 l-180 713q-14 61 -29 190q-14 -129 -29 -190l-180 -713q-12 -51 -63 -51h-174q-45 2 -58 51z" />
<glyph unicode="X" horiz-adv-x="1175" d="M48 19q-1 5 -1 11q0 15 10 29l371 660l-356 616q-13 22 -14 36q0 22 34 22h205q39 0 76 -52l227 -393l213 393q33 51 74 52h190q25 0 32 -15.5t-7 -36.5l-369 -626l385 -664q10 -12 10 -23q0 -6 -3 -12q-7 -16 -33 -16h-205q-43 0 -74 51l-246 422l-223 -422 q-39 -51 -74 -51h-192q-25 0 -30 19z" />
<glyph unicode="Y" horiz-adv-x="1116" d="M30 1378q9 14 36 15h202q41 0 62 -52l194 -467q12 -33 35 -108q20 72 37 108l217 467q23 51 59 52h177q27 0 37 -14q5 -6 6 -15q0 -10 -7 -23l-387 -809v-481q0 -51 -49 -51h-178q-51 0 -51 51v449l-389 841q-5 12 -6 22q1 8 5 15z" />
<glyph unicode="Z" horiz-adv-x="1017" d="M68 51v129q0 27 8 35l526 948h-448q-51 0 -52 51v129q0 49 52 50h729q53 0 53 -50v-129q0 -27 -12 -38l-525 -947h521q51 0 51 -49v-129q0 -51 -51 -51h-801q-51 0 -51 51z" />
<glyph unicode="[" horiz-adv-x="806" d="M127 -379v1757q0 53 49 54h469q51 0 51 -50v-129q0 -51 -51 -51h-242v-1405h242q51 0 51 -51v-129q0 -49 -51 -49h-469q-49 0 -49 53z" />
<glyph unicode="\" horiz-adv-x="749" d="M29 1378q-12 53 39 54h188q27 0 39 -12.5t20 -41.5l406 -1628q12 -53 -39 -53h-186q-47 0 -60 53z" />
<glyph unicode="]" horiz-adv-x="806" d="M111 -254q0 51 53 51h239v1405h-239q-53 0 -53 51v129q0 49 53 50h467q49 0 49 -54v-1757q0 -53 -49 -53h-467q-53 0 -53 49v129z" />
<glyph unicode="^" horiz-adv-x="1181" d="M125 616l313 730q6 14 9.5 19t9.5 13t15 11.5t22 3.5h190q37 0 55 -47l316 -730q8 -25 -6.5 -39t-42.5 -14h-164q-39 0 -56 53l-198 512l-195 -512q-16 -53 -57 -53h-162q-63 0 -49 53z" />
<glyph unicode="_" horiz-adv-x="933" d="M43 -199q0 47 51 47h746q51 0 51 -47v-123q0 -51 -51 -51h-746q-51 0 -51 51v123z" />
<glyph unicode="`" horiz-adv-x="643" d="M114.5 1435.5q8.5 14.5 35.5 14.5h176q47 0 71 -51l99 -201q23 -51 -27 -51h-131q-43 0 -68 35l-147 217q-17 22 -8.5 36.5z" />
<glyph unicode="a" horiz-adv-x="1058" d="M94 240v92q0 109 81 183.5t226 74.5h283v131q0 57 -34 86t-120 29t-121.5 -26t-35.5 -81v-14q0 -51 -49 -51h-152q-49 0 -49 51v26q0 295 414 295q412 0 411 -295v-688q0 -53 -49 -53h-154q-27 0 -36 12.5t-13 40.5l-4 43q-135 -113 -303 -112q-143 0 -219 73.5 t-76 182.5zM356 276q0 -80 103 -79q106 0 225 88v116h-229q-55 0 -77 -23.5t-22 -68.5v-33z" />
<glyph unicode="b" horiz-adv-x="1105" d="M121 53v1325q0 53 51 54h170q47 0 47 -54v-452q145 111 322 110q147 0 222 -78.5t75 -220.5v-454q0 -141 -75 -220t-222 -79q-182 0 -328 114l-4 -45q-2 -53 -49 -53h-158q-51 0 -51 53zM389 311q123 -94 238 -94q111 0 110 109v370q0 106 -110 107q-115 0 -238 -94v-398 z" />
<glyph unicode="c" horiz-adv-x="1007" d="M100 287v448q0 301 422 301q420 0 420 -301v-35q0 -49 -49 -49h-158q-51 0 -51 49v15q0 57 -36 82.5t-122 25.5t-121.5 -25.5t-35.5 -82.5v-408q0 -57 35.5 -83.5t121.5 -26.5t122 26.5t36 83.5v31q0 51 51 51h158q49 0 49 -51v-51q0 -303 -422 -303q-420 0 -420 303z " />
<glyph unicode="d" horiz-adv-x="1105" d="M100 283v454q0 141 75 220t222 79q174 0 320 -110v452q0 53 49 54h170q49 0 49 -54v-1325q0 -53 -49 -53h-158q-27 0 -37 12.5t-14 40.5l-4 45q-145 -115 -326 -114q-147 0 -222 79t-75 220zM369 326q0 -49 23.5 -79t88.5 -30q113 0 236 94v398q-123 94 -235.5 94 t-112.5 -107v-370z" />
<glyph unicode="e" horiz-adv-x="1021" d="M100 287v448q0 301 422 301q410 0 410 -301v-237q0 -47 -45 -47h-525v-152q0 -57 36 -85t124 -28t124 28t36 85v10q0 51 51 51h144q51 0 51 -51v-22q0 -303 -408 -303q-420 0 -420 303zM362 631h320v90q0 113 -160 113t-160 -113v-90z" />
<glyph unicode="f" horiz-adv-x="714" d="M39 854v102q0 25 11 35t38 15l105 10h6v127q0 141 110.5 221t329.5 80h18q51 0 52 -49v-119q0 -53 -52 -53h-18q-170 0 -170 -111v-96h170q51 0 51 -47v-115q0 -51 -51 -51h-170v-750q0 -53 -49 -53h-170q-51 0 -51 53v750h-111q-49 0 -49 51z" />
<glyph unicode="g" horiz-adv-x="1105" d="M100 283v454q0 141 75 220t222 79q182 0 328 -118l4 51q4 29 13.5 40t35.5 11h158q49 0 49 -51v-1080q0 -141 -109.5 -221t-328.5 -80h-289q-51 0 -51 50v118q0 53 51 54h289q170 0 170 110v172q-150 -109 -320 -108q-147 0 -222 79t-75 220zM369 326q0 -49 23.5 -79 t88.5 -30q113 0 236 94v398q-123 94 -235.5 94t-112.5 -107v-370z" />
<glyph unicode="h" horiz-adv-x="1116" d="M121 53v1325q0 53 51 54h170q47 0 47 -54v-448q141 106 322 106q139 0 218 -75.5t79 -198.5v-709q0 -53 -52 -53h-165q-53 0 -54 53v641q0 57 -23.5 83t-86.5 26q-117 0 -238 -92v-658q0 -53 -47 -53h-170q-51 0 -51 53z" />
<glyph unicode="i" horiz-adv-x="512" d="M121 53v916q0 51 51 51h170q47 0 47 -51v-916q0 -53 -47 -53h-170q-51 0 -51 53zM121 1202v176q0 53 51 54h170q47 0 47 -54v-176q0 -49 -47 -49h-170q-51 0 -51 49z" />
<glyph unicode="j" horiz-adv-x="509" d="M-119 -244q0 53 51 54h19q170 0 170 110v1049q0 51 49 51h170q49 0 49 -51v-1080q0 -141 -109.5 -221t-328.5 -80h-19q-51 0 -51 50v118zM121 1202v176q0 53 49 54h172q47 0 47 -54v-176q0 -49 -47 -49h-172q-49 0 -49 49z" />
<glyph unicode="k" horiz-adv-x="1013" d="M121 51v1329q0 51 51 52h170q47 0 47 -52v-708h45l254 297q39 51 82 51h184q25 0 32 -15.5t-7 -35.5l-332 -389l359 -529q10 -12 9 -23q0 -6 -2 -12q-7 -16 -32 -16h-186q-39 0 -74 51l-287 418h-45v-418q0 -51 -47 -51h-170q-51 0 -51 51z" />
<glyph unicode="l" horiz-adv-x="512" d="M121 53v1325q0 53 51 54h170q47 0 47 -54v-1325q0 -53 -47 -53h-170q-51 0 -51 53z" />
<glyph unicode="m" horiz-adv-x="1710" d="M121 53v918q0 49 51 49h158q27 0 37 -11.5t12 -37.5l2 -49q135 115 317 114q193 0 263 -137q43 39 69.5 58.5t105 49t167.5 29.5q139 0 217.5 -75.5t78.5 -198.5v-709q0 -53 -49 -53h-168q-51 0 -51 53v641q0 57 -24.5 83t-85.5 26q-119 0 -228 -92q2 -4 2 -15v-643 q0 -53 -51 -53h-166q-53 0 -53 53v641q0 57 -23.5 83t-87.5 26q-123 0 -225 -92v-658q0 -53 -47 -53h-170q-51 0 -51 53z" />
<glyph unicode="n" horiz-adv-x="1116" d="M121 53v918q0 49 51 49h158q27 0 37 -11.5t12 -37.5l4 -49q139 115 328 114q139 0 218 -75.5t79 -198.5v-709q0 -53 -52 -53h-165q-53 0 -54 53v641q0 57 -23.5 83t-86.5 26q-117 0 -238 -92v-658q0 -53 -47 -53h-170q-51 0 -51 53z" />
<glyph unicode="o" horiz-adv-x="1085" d="M100 287v448q0 141 112 221t331 80t330.5 -79.5t111.5 -221.5v-448q0 -143 -111.5 -223t-330.5 -80t-331 80t-112 223zM369 309q0 -113 174 -112.5t174 112.5v404q0 111 -174 110.5t-174 -110.5v-404z" />
<glyph unicode="p" horiz-adv-x="1105" d="M121 -360v1329q0 51 51 51h158q27 0 37 -11.5t12 -39.5l4 -49q150 117 328 116q147 0 222 -78.5t75 -220.5v-454q0 -141 -75 -220t-222 -79q-172 0 -322 108v-452q0 -51 -47 -52h-170q-51 1 -51 52zM389 311q123 -94 238 -94q111 0 110 109v370q0 106 -110 107 q-115 0 -238 -94v-398z" />
<glyph unicode="q" horiz-adv-x="1105" d="M100 283v454q0 141 75 220t222 79q176 0 326 -116l4 49q4 29 14.5 40t36.5 11h158q49 0 49 -51v-1329q0 -51 -49 -52h-170q-49 0 -49 52v452q-150 -109 -320 -108q-147 0 -222 79t-75 220zM369 326q0 -49 23.5 -79t88.5 -30q113 0 236 94v398q-123 94 -235.5 94 t-112.5 -107v-370z" />
<glyph unicode="r" horiz-adv-x="759" d="M121 53v918q0 49 51 49h158q27 0 37 -11.5t12 -37.5l6 -72q127 137 299 137q53 0 53 -49v-131q0 -47 -53 -53q-176 -12 -295 -121v-629q0 -53 -47 -53h-170q-51 0 -51 53z" />
<glyph unicode="s" horiz-adv-x="966" d="M78 248v47q0 47 47 47h151q47 0 48 -47v-35q0 -86 163 -86q166 0 166 86v35q0 47 -92 78l-297 108q-63 25 -112.5 85.5t-49.5 131.5v66q0 113 94.5 192.5t299.5 79.5q203 0 297 -79.5t94 -192.5v-39q0 -27 -10.5 -37t-36.5 -10h-152q-45 0 -45 47v39q0 84 -149 84 q-147 0 -148 -84v-23q0 -53 64 -71l295 -105q197 -70 196 -213v-104q0 -111 -103.5 -187.5t-310 -76.5t-308 76.5t-101.5 187.5z" />
<glyph unicode="t" horiz-adv-x="743" d="M31 854v102q0 25 11 35t38 15l94 10h6v196q0 51 51 52h170q49 0 50 -52v-196h186q51 0 51 -47v-115q0 -51 -51 -51h-186v-471q0 -111 163 -111h45q51 0 52 -51v-119q0 -51 -52 -51h-86q-219 0 -306 72.5t-87 230.5v500h-100q-49 0 -49 51z" />
<glyph unicode="u" horiz-adv-x="1103" d="M111 258v711q0 51 49 51h168q51 0 51 -51v-643q0 -57 24.5 -83t85.5 -26q113 0 226 90v662q0 51 49 51h170q49 0 49 -51v-918q0 -51 -49 -51h-158q-27 0 -37 11.5t-14 39.5l-4 45q-127 -113 -315 -112q-137 0 -216 75.5t-79 198.5z" />
<glyph unicode="v" horiz-adv-x="970" d="M23 969q-3 10 -3 17q0 34 50 34h176q41 0 55 -51l150 -465q20 -74 32 -191q20 123 41 189l162 467q16 51 57 51h158q52 0 52 -34q0 -8 -3 -17l-315 -922q-8 -29 -17.5 -38t-33.5 -9h-195q-27 0 -37 10t-16 37z" />
<glyph unicode="w" horiz-adv-x="1462" d="M23 969q-3 9 -3 17q0 34 52 34h161q47 0 58 -51l129 -537l16 -100q14 66 23 100l147 537q14 51 56 51h163q47 0 58 -51l129 -537l12 -55q2 29 10 55l164 537q14 51 55 51h138q52 0 51 -34q0 -8 -2 -17l-281 -922q-8 -29 -17 -38t-34 -9h-195q-27 0 -37 10t-16 37 l-110 485q-14 66 -21 111l-24 -111l-148 -485q-10 -31 -18.5 -39t-32.5 -8h-203q-25 0 -35 10t-16 37z" />
<glyph unicode="x" horiz-adv-x="972" d="M15 16q-2 5 -2 12q0 11 10 23l313 469l-299 449q-14 20 -8 35.5t32 15.5h185q39 0 76 -51l178 -267l168 267q29 51 73 51h164q25 0 32 -15.5t-7 -35.5l-303 -457l307 -461q10 -12 9 -23q0 -6 -2 -12q-7 -16 -34 -16h-184q-37 0 -72 51l-188 279l-180 -279 q-35 -51 -72 -51h-164q-25 0 -32 16z" />
<glyph unicode="y" horiz-adv-x="970" d="M23 969q-3 9 -3 16q0 13 9 22q14 13 41 13h170q41 0 57 -51l154 -469q23 -68 34 -174q18 88 43 166l162 477q8 27 19.5 39t35.5 12h156q29 0 43 -13q9 -8 9 -22q0 -7 -3 -16l-452 -1329q-12 -51 -58 -52h-123q-52 0 -51 34q0 8 2 18l101 333z" />
<glyph unicode="z" horiz-adv-x="913" d="M66 49v121q0 16 10 37l416 594h-340q-53 0 -54 49v121q0 49 54 49h620q51 0 51 -49v-119q0 -25 -10 -37l-420 -596h416q51 0 51 -49v-121q0 -49 -51 -49h-692q-51 0 -51 49z" />
<glyph unicode="{" horiz-adv-x="921" d="M106 451v116q0 53 52 54h2q158 0 157 110v416q0 143 110 223t329 80h18q51 0 51 -51v-119q0 -51 -51 -51h-18q-162 0 -162 -111v-416q0 -143 -127 -192q127 -53 127 -195v-430q0 -111 162 -110h18q51 0 51 -51v-119q0 -51 -51 -51h-18q-219 0 -329 79.5t-110 223.5v432 q0 111 -157 110h-2q-52 1 -52 52z" />
<glyph unicode="|" horiz-adv-x="561" d="M143 -379v1757q0 53 50 54h178q49 0 49 -54v-1757q0 -53 -49 -53h-178q-50 0 -50 53z" />
<glyph unicode="}" horiz-adv-x="921" d="M94 -276q0 51 51 51h21q162 0 162 110v430q0 141 125 195q-125 49 -125 192v416q0 111 -162 111h-21q-51 0 -51 51v119q0 51 51 51h21q219 0 328.5 -80t109.5 -223v-416q0 -111 158 -110h2q51 0 51 -54v-116q0 -51 -51 -52h-2q-158 0 -158 -110v-432q0 -143 -109.5 -223 t-328.5 -80h-21q-51 0 -51 51v119z" />
<glyph unicode="~" horiz-adv-x="1032" d="M123 471l8 98q8 92 58.5 136.5t113.5 44.5q53 0 111 -23l184 -84q66 -27 82 -27q31 0 41 64l2 10q10 45 55 45h88q49 0 43 -59l-10 -84q-12 -96 -59 -144.5t-109 -48.5q-68 0 -125 29l-186 86q-41 20 -66 21q-37 0 -45 -64l-2 -12q-6 -27 -18.5 -36t-36.5 -9h-88 q-47 0 -41 57z" />
<glyph unicode="&#xa1;" horiz-adv-x="567" d="M141 215v-541q0 -53 49 -53h181q51 0 51 53v541l-29 375q0 51 -49 51h-127q-49 0 -49 -51zM145 797v166q0 51 50 51h178q49 0 49 -51v-166q0 -51 -49 -52h-178q-50 1 -50 52z" />
<glyph unicode="&#xa2;" horiz-adv-x="1116" d="M137 471v449q0 250 293 292v127q0 53 49 54h170q49 0 49 -54v-129q281 -47 281 -290v-35q0 -49 -49 -49h-158q-51 0 -51 49v14q0 57 -36 83t-122 26t-121.5 -26t-35.5 -83v-407q0 -57 35.5 -84t121.5 -27t122 26.5t36 84.5v30q0 51 51 51h158q49 0 49 -51v-51 q0 -246 -281 -293v-125q0 -53 -49 -53h-170q-49 0 -49 53v123q-293 41 -293 295z" />
<glyph unicode="&#xa3;" horiz-adv-x="1406" d="M137 51v121q0 49 51 49h115v354h-115q-51 0 -51 50v123q0 49 51 49h115v282q0 145 106.5 237.5t350.5 92.5t351.5 -92t107.5 -238v-69q0 -53 -50 -54h-165q-49 0 -50 54v20q0 150 -192 150q-94 0 -138 -36t-44 -114v-233h223q51 0 51 -49v-123q0 -49 -51 -50h-223v-354 h311q117 0 117 166v19q0 51 51 51h160q51 0 51 -51v-19q0 -213 -79 -300t-226 -87h-777q-51 0 -51 51z" />
<glyph unicode="&#xa4;" horiz-adv-x="1214" d="M39 518v72q0 49 51 49h72v109h-72q-51 0 -51 51v71q0 49 51 50h72v155q0 145 111.5 239.5t369.5 94.5t369.5 -94t111.5 -240v-98q0 -51 -47 -51h-170q-51 0 -51 51v49q0 154 -209 154q-207 0 -207 -154v-106h193q51 0 51 -50v-71q0 -51 -51 -51h-193v-109h193 q51 0 51 -49v-72q0 -51 -51 -51h-193v-100q0 -154 207 -154q209 0 209 154v77q0 51 51 52h170q47 0 47 -52v-127q0 -145 -111.5 -239t-369.5 -94t-369.5 94t-111.5 239v150h-72q-51 0 -51 51z" />
<glyph unicode="&#xa5;" horiz-adv-x="1345" d="M144.5 1378.5q9.5 14.5 35.5 14.5h203q41 0 61 -52l195 -467q12 -33 35 -108q20 72 37 108l217 467q23 51 59 52h176q27 0 38 -13.5t-1 -38.5l-199 -415h84q51 0 52 -49v-72q0 -51 -52 -51h-165l-54 -111h219q51 0 52 -49v-72q0 -51 -52 -51h-272v-420q0 -51 -49 -51 h-178q-51 0 -51 51v420h-283q-51 0 -51 51v72q0 49 51 49h215l-51 111h-164q-51 0 -51 51v72q0 49 51 49h84l-191 415q-10 23 -0.5 37.5z" />
<glyph unicode="&#xa6;" horiz-adv-x="512" d="M121 264q0 53 51 53h170q47 0 47 -53v-643q0 -53 -47 -53h-170q-51 0 -51 53v643zM121 696v643q0 53 51 54h170q47 0 47 -54v-643q0 -53 -47 -53h-170q-51 0 -51 53z" />
<glyph unicode="&#xa7;" horiz-adv-x="1130" d="M143 -102q0 49 50 49h149q51 0 51 -49v-33q0 -57 38 -81t126 -24t127 25t39 82v133q0 51 -98 82l-258 80q-82 27 -137.5 95.5t-55.5 162.5v158q0 29 11.5 39t37.5 10h150q49 0 49 -49v-134q0 -63 78 -88l286 -90q86 -23 143.5 -85t57.5 -167v-123q0 -139 -103.5 -223 t-318.5 -84q-422 0 -422 295v19zM143 979v125q0 139 104.5 222t319.5 83q420 0 420 -293v-18q0 -51 -49 -51h-150q-49 0 -49 51v30q0 55 -38.5 80t-125.5 25q-88 0 -127.5 -24.5t-39.5 -82.5v-131q0 -53 98 -84l258 -80q82 -27 138 -94t56 -162v-159q0 -49 -51 -49h-149 q-49 0 -49 49v133q0 68 -78 88l-287 90q-201 59 -201 252z" />
<glyph unicode="&#xa8;" horiz-adv-x="780" d="M141 1202v189q0 51 49 51h107q49 0 49 -51v-189q0 -49 -49 -49h-107q-49 0 -49 49zM430 1202v189q0 51 51 51h107q47 0 47 -51v-189q0 -49 -47 -49h-107q-51 0 -51 49z" />
<glyph unicode="&#xa9;" horiz-adv-x="1593" d="M143 461v473q0 78 12.5 138.5t52.5 127t108.5 109.5t191.5 71.5t289 28.5q168 0 290.5 -28.5t191.5 -71.5t108.5 -109.5t52 -127t12.5 -138.5v-473q0 -78 -12.5 -138.5t-52 -127t-108.5 -110.5t-191.5 -72.5t-290.5 -28.5q-166 0 -289 28.5t-191.5 72.5t-108.5 110.5 t-52.5 127t-12.5 138.5zM338 424q0 -274 459 -274q461 0 460 272v551q0 272 -460 272q-459 0 -459 -274v-547zM453 557v277q0 143 79.5 213.5t268 70.5t267.5 -70.5t79 -213.5v-19q0 -49 -51 -49h-138q-49 0 -49 49v12q0 57 -25.5 84t-83 27t-83 -25.5t-25.5 -85.5v-262 q0 -57 25.5 -83.5t83.5 -26.5q109 0 108 110v27q0 51 49 51h138q51 0 51 -51v-35q0 -143 -79 -214t-269 -71q-188 0 -267 71t-79 214z" />
<glyph unicode="&#xaa;" horiz-adv-x="735" d="M96 932v51q0 66 54.5 112t146.5 46h143v82q0 45 -67.5 45t-67.5 -43v-8q0 -35 -35 -35h-116q-39 0 -39 35v14q0 84 67.5 131t196.5 47q260 0 260 -186v-404q0 -35 -37 -35h-115q-20 0 -25 6.5t-11 28.5l-5 19q-78 -63 -170 -64q-90 0 -135 45t-45 113zM295 956 q0 -41 47 -41q53 0 98 46v59h-102q-43 0 -43 -41v-23z" />
<glyph unicode="&#xab;" horiz-adv-x="1462" d="M121 408v190q0 31 45 55l498 275q23 10 37 -5.5t14 -43.5v-164q0 -41 -51 -58l-328 -155l328 -154q14 -6 20 -9t15.5 -10t12.5 -16.5t3 -21.5v-164q0 -63 -51 -49l-498 272q-45 25 -45 58zM745 408v190q0 31 46 55l497 275q23 10 37 -5.5t14 -43.5v-164q0 -41 -51 -58 l-327 -155l327 -154q14 -6 20.5 -9t15.5 -10t12 -16.5t3 -21.5v-164q0 -63 -51 -49l-497 272q-46 25 -46 58z" />
<glyph unicode="&#xac;" horiz-adv-x="755" d="M121 620.5q0 100.5 70.5 172t171 71.5t172 -71.5t71.5 -172t-71.5 -170t-172 -69.5t-171 69.5t-70.5 170z" />
<glyph unicode="&#xad;" horiz-adv-x="892" d="M121 530v121q0 49 51 49h549q51 0 51 -49v-121q0 -49 -51 -49h-549q-51 0 -51 49z" />
<glyph unicode="&#xae;" horiz-adv-x="1323" d="M143 692v379q0 49 9.5 90t41 89t86 81t152.5 55.5t231.5 22.5t231.5 -22.5t151.5 -55.5t85 -81t41 -89t9.5 -90v-379q0 -49 -9.5 -90t-41 -89t-85 -81t-151.5 -55.5t-231.5 -22.5t-231.5 22.5t-152.5 55.5t-86 81t-41 89t-9.5 90zM319 676q0 -168 345 -168q340 0 340 166 v413q0 78 -75 122t-265 44q-344 0 -345 -166v-411zM428 639v485q0 35 35 35h231q225 0 226 -170v-35q0 -100 -78 -141l69 -174q10 -37 -34 -37h-109q-8 0 -13 2t-9.5 8t-6.5 10.5t-6 16.5l-57 143h-70v-143q0 -37 -33 -37h-110q-35 0 -35 37zM606 913h70q20 0 40.5 12.5 t20.5 32.5v25q0 47 -61 47h-70v-117z" />
<glyph unicode="&#xaf;" horiz-adv-x="831" d="M127 1231v106q0 49 51 49h473q51 0 51 -49v-106q0 -49 -51 -49h-473q-51 0 -51 49z" />
<glyph unicode="&#xb0;" horiz-adv-x="890" d="M111 985v195q0 111 76.5 170t259 59t258 -59.5t75.5 -169.5v-195q0 -111 -75.5 -169t-258 -58t-259 58t-76.5 169zM338 995q0 -63 106 -63q109 0 109 63v176q0 61 -109 62q-106 0 -106 -62v-176z" />
<glyph unicode="&#xb1;" horiz-adv-x="1146" d="M121 143v121q0 49 51 49h801q53 0 53 -49v-121q0 -51 -53 -51h-801q-51 0 -51 51zM121 721v123q0 47 51 47h291v192q0 51 47 52h121q51 0 51 -52v-192h291q53 0 53 -47v-123q0 -49 -53 -49h-291v-193q0 -51 -51 -51h-121q-47 0 -47 51v193h-291q-51 0 -51 49z" />
<glyph unicode="&#xb2;" horiz-adv-x="794" d="M94 1124v76q0 88 72 148.5t225.5 60.5t227 -60.5t75.5 -148.5v-80q0 -147 -119 -205l-223 -102q-29 -6 -28 -29v-57h340q20 0 28 -7t8 -28v-92q0 -37 -36 -37h-512q-37 0 -37 37v219q0 45 17.5 67.5t55.5 41.5l263 116q39 20 38 66v57q0 39 -27.5 59.5t-70.5 20.5 q-94 0 -94 -80v-43q0 -39 -35 -39h-131q-37 0 -37 39z" />
<glyph unicode="&#xb3;" horiz-adv-x="792" d="M94 764v39q0 37 37 37h129q39 0 39 -37v-8q0 -80 96 -80q98 0 99 80v39q0 78 -101 77h-84q-39 0 -39 35v88q0 37 39 37h72q98 0 98 78v22q0 80 -88 80t-88 -80v-8q0 -37 -37 -37h-131q-37 0 -37 37v39q0 90 67.5 149.5t229.5 59.5q291 0 291 -205v-86q0 -90 -84 -123 q96 -43 96 -141v-96q0 -88 -69.5 -146.5t-229.5 -58.5q-162 0 -233.5 59.5t-71.5 149.5z" />
<glyph unicode="&#xb4;" horiz-adv-x="643" d="M145 1198l99 201q25 51 71 51h177q27 0 35 -14.5t-9 -36.5l-147 -217q-25 -35 -68 -35h-131q-50 0 -27 51z" />
<glyph unicode="&#xb5;" horiz-adv-x="1103" d="M111 -360v1329q0 51 49 51h168q51 0 51 -51v-643q0 -57 24.5 -83t85.5 -26q113 0 226 90v662q0 51 49 51h170q49 0 49 -51v-918q0 -51 -49 -51h-158q-27 0 -37 11.5t-14 39.5l-4 45q-127 -113 -315 -112q-8 0 -21.5 1t-19.5 1l14 -346q2 -51 -49 -52h-170q-49 1 -49 52z " />
<glyph unicode="&#x3bc;" horiz-adv-x="1103" d="M111 -360v1329q0 51 49 51h168q51 0 51 -51v-643q0 -57 24.5 -83t85.5 -26q113 0 226 90v662q0 51 49 51h170q49 0 49 -51v-918q0 -51 -49 -51h-158q-27 0 -37 11.5t-14 39.5l-4 45q-127 -113 -315 -112q-8 0 -21.5 1t-19.5 1l14 -346q2 -51 -49 -52h-170q-49 1 -49 52z " />
<glyph unicode="&#xb6;" horiz-adv-x="1419" d="M143 846v278q0 129 88 199t308 70h276q49 0 49 -52v-1701q0 -51 -49 -52h-178q-49 0 -49 52v938h-49q-219 0 -307.5 69.5t-88.5 198.5zM1001 -360v1699q0 53 50 54h178q49 0 49 -54v-1699q0 -51 -49 -52h-178q-50 1 -50 52z" />
<glyph unicode="&#xb7;" horiz-adv-x="512" d="M119 483v166q0 51 51 51h174q49 0 49 -51v-166q0 -51 -49 -51h-174q-51 0 -51 51z" />
<glyph unicode="&#xb8;" horiz-adv-x="534" d="M35 -340q0 49 51 49h201q39 0 39 31q0 33 -39 33h-154q-84 0 -63 67l53 187q18 49 59 45l76 -6q49 -10 37 -62l-27 -96h62q84 0 132 -42t48 -126q0 -86 -48 -129t-132 -43h-244q-51 0 -51 51v41z" />
<glyph unicode="&#xb9;" horiz-adv-x="765" d="M94 598v92q0 20 8.5 27.5t30.5 7.5h150v489l-150 -20q-39 -6 -39 31v94q0 35 39 37l324 51q14 4 24.5 -3t10.5 -32v-647h145q18 0 26.5 -7t8.5 -28v-92q0 -37 -35 -37h-504q-39 0 -39 37z" />
<glyph unicode="&#xba;" horiz-adv-x="761" d="M94 965v252q0 90 74 141t213 51q137 0 211 -51t74 -141v-252q0 -88 -74 -139.5t-211 -51.5q-139 0 -213 50.5t-74 140.5zM299 983q0 -55 82 -55q80 0 80 55v217q0 53 -80 53q-82 0 -82 -53v-217z" />
<glyph unicode="&#xbb;" horiz-adv-x="1458" d="M121 141v164q0 41 51 57l328 156l-328 154q-14 6 -20.5 9t-15.5 10t-12 16.5t-3 21.5v164q0 63 51 49l498 -272q45 -25 45 -58v-190q0 -31 -45 -55l-498 -275q-23 -10 -37 5t-14 44zM741 141v164q0 41 52 57l327 156l-327 154q-14 6 -20.5 9t-15.5 10t-12.5 16.5 t-3.5 21.5v164q0 63 52 49l497 -272q45 -25 45 -58v-190q0 -31 -45 -55l-497 -275q-23 -10 -37.5 5t-14.5 44z" />
<glyph unicode="&#xbc;" horiz-adv-x="1832" d="M94 598v92q0 20 8.5 27.5t30.5 7.5h150v489l-150 -20q-39 -6 -39 31v94q0 35 39 37l324 51q14 4 24.5 -3t10.5 -32v-647h145q18 0 26.5 -7t8.5 -28v-92q0 -37 -35 -37h-504q-39 0 -39 37zM649 -63l369 1519q6 37 43 37h141q39 0 29 -37l-369 -1519q-6 -37 -41 -37h-143 q-39 0 -29 37zM1130 248v92q0 14 5 22l122 437q14 37 46 37h137q20 0 27.5 -10.5t-1.5 -26.5l-118 -424h182v424q0 37 37 37h135q37 0 37 -37v-762q0 -37 -37 -37h-135q-37 0 -37 37v174h-361q-39 0 -39 37z" />
<glyph unicode="&#xbd;" horiz-adv-x="1841" d="M94 598v92q0 20 8.5 27.5t30.5 7.5h150v489l-150 -20q-39 -6 -39 31v94q0 35 39 37l324 51q14 4 24.5 -3t10.5 -32v-647h145q18 0 26.5 -7t8.5 -28v-92q0 -37 -35 -37h-504q-39 0 -39 37zM631 -63l368 1519q6 37 43 37h142q39 0 28 -37l-368 -1519q-6 -37 -41 -37h-144 q-36 0 -28 37zM1139 561v76q0 88 71.5 148.5t227.5 60.5q154 0 227.5 -61.5t73.5 -147.5v-80q0 -147 -119 -205l-221 -102q-31 -6 -31 -29v-57h340q39 0 39 -35v-92q0 -37 -39 -37h-512q-37 0 -37 37v219q0 45 17.5 67.5t56.5 41.5l262 116q39 20 39 66v57q0 39 -27.5 59.5 t-68.5 20.5q-96 0 -97 -80v-43q0 -39 -34 -39h-131q-37 0 -37 39z" />
<glyph unicode="&#xbe;" horiz-adv-x="1855" d="M94 762v39q0 37 37 37h129q39 0 39 -37v-8q0 -80 96 -80q98 0 99 80v38q0 78 -101 78h-84q-39 0 -39 35v88q0 37 39 37h72q98 0 98 78v22q0 80 -88 80t-88 -80v-8q0 -37 -37 -37h-131q-37 0 -37 37v39q0 90 67.5 149.5t229.5 59.5q291 0 291 -205v-86q0 -90 -84 -123 q96 -43 96 -141v-96q0 -88 -69.5 -146.5t-229.5 -58.5q-162 0 -233.5 59.5t-71.5 149.5zM672 -63l368 1519q6 37 43 37h142q43 0 28 -37l-368 -1519q-6 -37 -41 -37h-144q-34 0 -28 37zM1151 248v92q0 10 6 22l123 437q10 37 45 37h137q41 0 27 -37l-119 -424h182v424 q0 37 37 37h135q37 0 37 -37v-762q0 -37 -37 -37h-135q-37 0 -37 37v174h-360q-41 0 -41 37z" />
<glyph unicode="&#xbf;" horiz-adv-x="1157" d="M102 41v-96q2 -145 116 -239.5t361.5 -94.5t359.5 94t112 240v125q0 51 -52 51h-170q-47 0 -47 -51v-80q0 -154 -202.5 -154t-202.5 154v61q0 82 78 125l188 96q61 29 95 68t34 117v141q0 49 -49 49h-180q-27 0 -37 -11t-10 -38v-72q0 -47 -19.5 -69.5t-66.5 -44.5 l-117 -54q-191 -84 -191 -317zM496 803v166q0 51 47 51h180q49 0 49 -51v-166q0 -51 -49 -51h-180q-47 0 -47 51z" />
<glyph unicode="&#xc0;" horiz-adv-x="1132" d="M31 51l383 1290q18 51 63 52h178q47 0 66 -52l381 -1290q18 -51 -37 -51h-184q-47 0 -60 51l-71 250h-381l-72 -250q-16 -51 -61 -51h-166q-55 0 -39 51zM287 1788q8 14 35 14h176q47 0 71 -51l99 -201q23 -51 -27 -51h-131q-43 0 -68 35l-147 217q-16 23 -8 37zM428 520 h260l-67 228q-35 135 -60 374q-33 -270 -63 -372z" />
<glyph unicode="&#xc1;" horiz-adv-x="1132" d="M31 51l383 1290q18 51 63 52h178q47 0 66 -52l381 -1290q18 -51 -37 -51h-184q-47 0 -60 51l-71 250h-381l-72 -250q-16 -51 -61 -51h-166q-55 0 -39 51zM428 520h260l-67 228q-35 135 -60 374q-33 -270 -63 -372zM455 1550l98 201q25 51 72 51h176q27 0 35 -14t-9 -37 l-147 -217q-25 -35 -68 -35h-131q-49 0 -26 51z" />
<glyph unicode="&#xc2;" horiz-adv-x="1132" d="M31 51l383 1290q18 51 63 52h178q47 0 66 -52l381 -1290q18 -51 -37 -51h-184q-47 0 -60 51l-71 250h-381l-72 -250q-16 -51 -61 -51h-166q-55 0 -39 51zM274.5 1513.5q-8.5 14.5 6.5 36.5l149 199q39 53 82 53h96q41 0 82 -51l150 -201q14 -23 7 -37t-34 -14h-131 q-45 0 -70 51l-51 90l-51 -90q-20 -51 -72 -51h-129q-26 0 -34.5 14.5zM428 520h260l-67 228q-35 135 -60 374q-33 -270 -63 -372z" />
<glyph unicode="&#xc3;" horiz-adv-x="1132" d="M31 51l383 1290q18 51 63 52h178q47 0 66 -52l381 -1290q18 -51 -37 -51h-184q-47 0 -60 51l-71 250h-381l-72 -250q-16 -51 -61 -51h-166q-55 0 -39 51zM215 1561l8 86q6 76 56.5 116.5t121.5 40.5q68 0 121 -26l86 -41q66 -31 78 -31q33 0 39 49v10q8 45 55 45h88 q49 0 43 -59l-6 -80q-6 -78 -53 -119t-115 -41q-72 0 -131 27l-88 39q-70 31 -78 31q-37 0 -39 -49l-2 -13q-6 -45 -53 -45h-90q-47 1 -41 60zM428 520h260l-67 228q-35 135 -60 374q-33 -270 -63 -372z" />
<glyph unicode="&#xc4;" horiz-adv-x="1132" d="M31 51l383 1290q18 51 63 52h178q47 0 66 -52l381 -1290q18 -51 -37 -51h-184q-47 0 -60 51l-71 250h-381l-72 -250q-16 -51 -61 -51h-166q-55 0 -39 51zM311 1571v188q0 51 49 51h107q49 0 49 -51v-188q0 -49 -49 -49h-107q-49 0 -49 49zM428 520h260l-67 228 q-35 135 -60 374q-33 -270 -63 -372zM600 1571v188q0 51 51 51h107q47 0 47 -51v-188q0 -49 -47 -49h-107q-51 0 -51 49z" />
<glyph unicode="&#xc5;" horiz-adv-x="1132" d="M31 51l383 1290q18 51 63 52h178q47 0 66 -52l381 -1290q18 -51 -37 -51h-184q-47 0 -60 51l-71 250h-381l-72 -250q-16 -51 -61 -51h-166q-55 0 -39 51zM348 1587v70q0 66 55.5 104.5t159.5 38.5q102 0 157.5 -39t55.5 -104v-70q0 -66 -55 -104.5t-158 -38.5 q-104 0 -159.5 38.5t-55.5 104.5zM428 520h260l-67 228q-35 135 -60 374q-33 -270 -63 -372zM496 1610q0 -49 67 -49q66 0 66 49v22q0 51 -66 51q-68 0 -67 -51v-22z" />
<glyph unicode="&#xc6;" horiz-adv-x="1710" d="M32.5 14.5q-12.5 14.5 2.5 36.5l768 1292q31 49 71 50h680q51 0 52 -50v-124q0 -49 -52 -50h-473v-340h439q53 0 53 -49v-116q0 -51 -53 -52h-439v-389h496q51 0 51 -47v-127q0 -49 -51 -49h-707q-51 0 -51 51v250h-375l-145 -250q-25 -51 -59 -51h-168q-27 0 -39.5 14.5 zM575 520h244v432q-8 -16 -69 -133z" />
<glyph unicode="&#xc7;" horiz-adv-x="1165" d="M121 317v758q0 145 111.5 239.5t369.5 94.5t369.5 -94t111.5 -240v-98q0 -51 -47 -51h-170q-51 0 -51 51v49q0 154 -209 154q-207 0 -207 -154v-659q0 -154 207 -154q209 0 209 154v77q0 51 51 52h170q47 0 47 -52v-127q0 -143 -107.5 -236t-352.5 -97l-21 -76h62 q84 0 132 -42t48 -126q0 -86 -48 -129t-132 -43h-244q-51 0 -51 51v41q0 49 51 49h201q39 0 38 31q0 33 -38 33h-154q-84 0 -64 67l43 156q-174 27 -249.5 113.5t-75.5 207.5z" />
<glyph unicode="&#xc8;" horiz-adv-x="1048" d="M143 53v1286q0 53 50 54h700q51 0 51 -50v-129q0 -51 -51 -51h-473v-332h438q53 0 53 -49v-123q0 -49 -53 -49h-438v-381h493q51 0 52 -49v-129q0 -51 -52 -51h-720q-50 0 -50 53zM268 1788q8 14 35 14h176q47 0 72 -51l98 -201q23 -51 -26 -51h-131q-43 0 -68 35 l-148 217q-16 23 -8 37z" />
<glyph unicode="&#xc9;" horiz-adv-x="1048" d="M143 53v1286q0 53 50 54h700q51 0 51 -50v-129q0 -51 -51 -51h-473v-332h438q53 0 53 -49v-123q0 -49 -53 -49h-438v-381h493q51 0 52 -49v-129q0 -51 -52 -51h-720q-50 0 -50 53zM412 1550l98 201q25 51 72 51h176q27 0 35 -14t-9 -37l-147 -217q-25 -35 -68 -35h-131 q-49 0 -26 51z" />
<glyph unicode="&#xca;" horiz-adv-x="1048" d="M143 53v1286q0 53 50 54h700q51 0 51 -50v-129q0 -51 -51 -51h-473v-332h438q53 0 53 -49v-123q0 -49 -53 -49h-438v-381h493q51 0 52 -49v-129q0 -51 -52 -51h-720q-50 0 -50 53zM248 1513.5q-8 14.5 6 36.5l149 199q39 53 82 53h97q41 0 82 -51l149 -201q14 -23 7 -37 t-34 -14h-131q-45 0 -69 51l-51 90l-52 -90q-20 -51 -71 -51h-129q-27 0 -35 14.5z" />
<glyph unicode="&#xcb;" horiz-adv-x="1048" d="M143 53v1286q0 53 50 54h700q51 0 51 -50v-129q0 -51 -51 -51h-473v-332h438q53 0 53 -49v-123q0 -49 -53 -49h-438v-381h493q51 0 52 -49v-129q0 -51 -52 -51h-720q-50 0 -50 53zM297 1571v188q0 51 49 51h107q49 0 49 -51v-188q0 -49 -49 -49h-107q-49 0 -49 49z M586 1571v188q0 51 51 51h106q47 0 48 -51v-188q0 -49 -48 -49h-106q-51 0 -51 49z" />
<glyph unicode="&#xcc;" horiz-adv-x="555" d="M-6 1788q8 14 35 14h176q47 0 71 -51l99 -201q23 -51 -27 -51h-131q-43 0 -67 35l-148 217q-16 23 -8 37zM137 53v1286q0 53 49 54h179q49 0 49 -54v-1286q0 -53 -49 -53h-179q-49 0 -49 53z" />
<glyph unicode="&#xcd;" horiz-adv-x="555" d="M143 53v1286q0 53 50 54h178q49 0 49 -54v-1286q0 -53 -49 -53h-178q-50 0 -50 53zM174 1550l98 201q25 51 72 51h176q27 0 35 -14t-8 -37l-148 -217q-25 -35 -67 -35h-131q-50 0 -27 51z" />
<glyph unicode="&#xce;" horiz-adv-x="546" d="M-10 1513.5q-8 14.5 6 36.5l149 199q39 53 82 53h97q41 0 82 -51l149 -201q14 -23 7 -37t-34 -14h-131q-45 0 -69 51l-52 90l-51 -90q-20 -51 -71 -51h-129q-27 0 -35 14.5zM137 53v1286q0 53 49 54h179q49 0 49 -54v-1286q0 -53 -49 -53h-179q-49 0 -49 53z" />
<glyph unicode="&#xcf;" horiz-adv-x="555" d="M33 1571v188q0 51 49 51h106q49 0 50 -51v-188q0 -49 -50 -49h-106q-49 0 -49 49zM141 53v1286q0 53 49 54h179q49 0 49 -54v-1286q0 -53 -49 -53h-179q-49 0 -49 53zM322 1571v188q0 51 51 51h106q47 0 47 -51v-188q0 -49 -47 -49h-106q-51 0 -51 49z" />
<glyph unicode="&#xd0;" horiz-adv-x="1259" d="M6 649v105q0 49 51 49h93v536q0 53 49 54h446q258 0 379 -95.5t121 -238.5v-725q0 -143 -121 -238.5t-379 -95.5h-452q-43 2 -43 53v545h-93q-51 0 -51 51zM426 229h219q223 0 223 154v627q0 154 -223 153h-219v-360h178q51 0 51 -49v-105q0 -51 -51 -51h-178v-369z" />
<glyph unicode="&#xd1;" horiz-adv-x="1280" d="M143 51v1290q0 51 50 52h161q35 0 43 -21l412 -706q29 -45 70 -144v819q0 51 49 52h162q49 0 49 -52v-1290q0 -51 -49 -51h-162q-39 0 -47 25l-396 677q-37 55 -82 168v-819q0 -51 -49 -51h-161q-50 0 -50 51zM289 1561l8 86q6 76 56 116.5t122 40.5q68 0 121 -26l86 -41 q66 -31 78 -31q33 0 39 49v10q8 45 55 45h88q49 0 43 -59l-6 -80q-6 -78 -53 -119t-115 -41q-72 0 -131 27l-88 39q-70 31 -78 31q-37 0 -39 -49l-2 -13q-6 -45 -53 -45h-90q-47 1 -41 60z" />
<glyph unicode="&#xd2;" horiz-adv-x="1239" d="M121 317v758q0 143 119.5 238.5t378 95.5t378 -95t119.5 -239v-758q0 -143 -119.5 -238t-378 -95t-378 95t-119.5 238zM336 1788q8 14 35 14h176q47 0 71 -51l99 -201q23 -51 -27 -51h-131q-43 0 -67 35l-148 217q-16 23 -8 37zM399 367q0 -154 219 -154q221 0 222 154 v659q0 154 -222 154q-219 0 -219 -154v-659z" />
<glyph unicode="&#xd3;" horiz-adv-x="1239" d="M121 317v758q0 143 119.5 238.5t378 95.5t378 -95t119.5 -239v-758q0 -143 -119.5 -238t-378 -95t-378 95t-119.5 238zM399 367q0 -154 219 -154q221 0 222 154v659q0 154 -222 154q-219 0 -219 -154v-659zM479 1550l99 201q25 51 71 51h176q27 0 35 -14t-8 -37 l-147 -217q-25 -35 -68 -35h-131q-50 0 -27 51z" />
<glyph unicode="&#xd4;" horiz-adv-x="1239" d="M121 317v758q0 143 119.5 238.5t378 95.5t378 -95t119.5 -239v-758q0 -143 -119.5 -238t-378 -95t-378 95t-119.5 238zM334 1513.5q-8 14.5 6 36.5l149 199q39 53 82 53h97q41 0 82 -51l149 -201q14 -23 7 -37t-34 -14h-131q-45 0 -69 51l-51 90l-52 -90q-20 -51 -71 -51 h-129q-27 0 -35 14.5zM399 367q0 -154 219 -154q221 0 222 154v659q0 154 -222 154q-219 0 -219 -154v-659z" />
<glyph unicode="&#xd5;" horiz-adv-x="1239" d="M121 317v758q0 143 119.5 238.5t378 95.5t378 -95t119.5 -239v-758q0 -143 -119.5 -238t-378 -95t-378 95t-119.5 238zM268 1561l8 86q6 76 56.5 116.5t122.5 40.5q68 0 120 -26l87 -41q66 -31 77 -31q33 0 39 49v10q8 45 56 45h88q49 0 43 -59l-7 -80q-6 -78 -53 -119 t-114 -41q-72 0 -132 27l-88 39q-70 31 -77 31q-37 0 -39 -49l-2 -13q-6 -45 -54 -45h-90q-47 1 -41 60zM399 367q0 -154 219 -154q221 0 222 154v659q0 154 -222 154q-219 0 -219 -154v-659z" />
<glyph unicode="&#xd6;" horiz-adv-x="1239" d="M121 317v758q0 143 119.5 238.5t378 95.5t378 -95t119.5 -239v-758q0 -143 -119.5 -238t-378 -95t-378 95t-119.5 238zM371 1571v188q0 51 49 51h106q49 0 49 -51v-188q0 -49 -49 -49h-106q-49 0 -49 49zM399 367q0 -154 219 -154q221 0 222 154v659q0 154 -222 154 q-219 0 -219 -154v-659zM659 1571v188q0 51 52 51h106q47 0 47 -51v-188q0 -49 -47 -49h-106q-52 0 -52 49z" />
<glyph unicode="&#xd7;" horiz-adv-x="1107" d="M133 520q-25 45 21 70l249 143l-145 252q-25 45 16 70l105 61q45 25 70 -20l145 -252l252 145q45 25 69 -16l60 -105q27 -47 -19 -71l-254 -146l146 -250q27 -47 -19 -69l-104 -60q-41 -29 -68 19l-145 250l-250 -144q-47 -27 -69 19z" />
<glyph unicode="&#xd8;" horiz-adv-x="1239" d="M123 317v758q0 143 119.5 238.5t378.5 95.5q145 0 260 -37l18 37q31 61 74 61h74q51 0 20 -61l-53 -106q104 -86 104 -228v-758q0 -143 -119.5 -238t-377.5 -95q-145 0 -254 32l-17 -30q-18 -35 -32.5 -48.5t-45.5 -13.5h-69q-23 0 -28 18.5t7 43.5l49 100 q-108 86 -108 231zM401 420l367 729q-55 31 -147 31q-219 0 -220 -154v-606zM477 240q53 -27 144 -27q221 0 221 154v594z" />
<glyph unicode="&#xd9;" horiz-adv-x="1259" d="M131 317v1022q0 53 51 54h178q49 0 50 -54v-972q0 -154 219 -154q104 0 163.5 39t59.5 115v972q0 53 49 54h178q47 0 47 -54v-1022q0 -143 -119.5 -238t-377.5 -95t-378 95t-120 238zM350 1788q8 14 35 14h176q47 0 72 -51l98 -201q23 -51 -26 -51h-132q-43 0 -67 35 l-148 217q-16 23 -8 37z" />
<glyph unicode="&#xda;" horiz-adv-x="1259" d="M131 317v1022q0 53 51 54h178q49 0 50 -54v-972q0 -154 219 -154q104 0 163.5 39t59.5 115v972q0 53 49 54h178q47 0 47 -54v-1022q0 -143 -119.5 -238t-377.5 -95t-378 95t-120 238zM532 1550l99 201q25 51 71 51h177q27 0 35 -14t-9 -37l-147 -217q-25 -35 -68 -35 h-131q-50 0 -27 51z" />
<glyph unicode="&#xdb;" horiz-adv-x="1259" d="M131 317v1022q0 53 51 54h178q49 0 50 -54v-972q0 -154 219 -154q104 0 163.5 39t59.5 115v972q0 53 49 54h178q47 0 47 -54v-1022q0 -143 -119.5 -238t-377.5 -95t-378 95t-120 238zM340 1513.5q-8 14.5 6 36.5l150 199q39 53 82 53h96q41 0 82 -51l149 -201 q14 -23 7 -37t-33 -14h-131q-45 0 -70 51l-51 90l-52 -90q-20 -51 -71 -51h-129q-27 0 -35 14.5z" />
<glyph unicode="&#xdc;" horiz-adv-x="1259" d="M131 317v1022q0 53 51 54h178q49 0 50 -54v-972q0 -154 219 -154q104 0 163.5 39t59.5 115v972q0 53 49 54h178q47 0 47 -54v-1022q0 -143 -119.5 -238t-377.5 -95t-378 95t-120 238zM381 1571v188q0 51 49 51h107q49 0 49 -51v-188q0 -49 -49 -49h-107q-49 0 -49 49z M670 1571v188q0 51 51 51h106q47 0 47 -51v-188q0 -49 -47 -49h-106q-51 0 -51 49z" />
<glyph unicode="&#xdd;" horiz-adv-x="1116" d="M29.5 1378.5q9.5 14.5 36.5 14.5h202q41 0 62 -52l194 -467q12 -33 35 -108q20 72 37 108l217 467q23 51 59 52h177q27 0 38 -13.5t-2 -38.5l-387 -809v-481q0 -51 -49 -51h-178q-51 0 -51 51v449l-389 841q-11 23 -1.5 37.5zM455 1550l98 201q25 51 72 51h176 q27 0 35 -14t-9 -37l-147 -217q-25 -35 -68 -35h-131q-49 0 -26 51z" />
<glyph unicode="&#xde;" horiz-adv-x="1187" d="M143 53v1286q0 53 50 54h178q49 0 49 -54v-319h203q258 0 376.5 -94.5t118.5 -239.5v-174q0 -145 -118.5 -239.5t-376.5 -94.5h-203v-125q0 -53 -49 -53h-178q-50 0 -50 53zM420 408h203q221 0 221 153v76q0 154 -221 154h-203v-383z" />
<glyph unicode="&#xdf;" horiz-adv-x="1312" d="M39 854v102q0 47 49 50l105 10h6v131q0 141 117.5 222t349.5 81q453 0 452 -303v-72q0 -127 -141 -188l-137 -60q-55 -20 -56 -53v-4q0 -39 66 -65l237 -109q72 -33 127.5 -91.5t55.5 -133.5v-92q0 -295 -367 -295q-195 0 -270.5 70.5t-75.5 213.5v11q0 51 49 51h117 q51 0 51 -51v-21q0 -104 125 -104q127 0 127 104v66q0 49 -78 82l-219 96q-168 74 -168 235v41q0 123 133 180l94 41q80 35 80 99v35q0 125 -200 124q-199 0 -199 -124v-1080q0 -53 -49 -53h-170q-51 0 -51 53v750h-111q-49 0 -49 51z" />
<glyph unicode="&#xe0;" horiz-adv-x="1058" d="M94 240v92q0 109 81 183.5t226 74.5h283v131q0 57 -34 86t-120 29t-121.5 -26t-35.5 -81v-14q0 -51 -49 -51h-152q-49 0 -49 51v26q0 295 414 295q412 0 411 -295v-688q0 -53 -49 -53h-154q-27 0 -36 12.5t-13 40.5l-4 43q-135 -113 -303 -112q-143 0 -219 73.5 t-76 182.5zM282.5 1435.5q8.5 14.5 34.5 14.5h177q47 0 71 -51l99 -201q23 -51 -27 -51h-131q-43 0 -68 35l-147 217q-17 22 -8.5 36.5zM356 276q0 -80 103 -79q106 0 225 88v116h-229q-55 0 -77 -23.5t-22 -68.5v-33z" />
<glyph unicode="&#xe1;" horiz-adv-x="1058" d="M94 240v92q0 109 81 183.5t226 74.5h283v131q0 57 -34 86t-120 29t-121.5 -26t-35.5 -81v-14q0 -51 -49 -51h-152q-49 0 -49 51v26q0 295 414 295q412 0 411 -295v-688q0 -53 -49 -53h-154q-27 0 -36 12.5t-13 40.5l-4 43q-135 -113 -303 -112q-143 0 -219 73.5 t-76 182.5zM356 276q0 -80 103 -79q106 0 225 88v116h-229q-55 0 -77 -23.5t-22 -68.5v-33zM399 1198l99 201q25 51 71 51h176q27 0 35 -14.5t-8 -36.5l-147 -217q-25 -35 -68 -35h-131q-50 0 -27 51z" />
<glyph unicode="&#xe2;" horiz-adv-x="1058" d="M94 240v92q0 109 81 183.5t226 74.5h283v131q0 57 -34 86t-120 29t-121.5 -26t-35.5 -81v-14q0 -51 -49 -51h-152q-49 0 -49 51v26q0 295 414 295q412 0 411 -295v-688q0 -53 -49 -53h-154q-27 0 -36 12.5t-13 40.5l-4 43q-135 -113 -303 -112q-143 0 -219 73.5 t-76 182.5zM248 1161.5q-8 14.5 6 36.5l149 199q39 53 82 53h97q41 0 82 -51l149 -201q14 -23 7 -37t-34 -14h-131q-45 0 -69 51l-51 90l-52 -90q-20 -51 -71 -51h-129q-27 0 -35 14.5zM356 276q0 -80 103 -79q106 0 225 88v116h-229q-55 0 -77 -23.5t-22 -68.5v-33z" />
<glyph unicode="&#xe3;" horiz-adv-x="1058" d="M94 240v92q0 109 81 183.5t226 74.5h283v131q0 57 -34 86t-120 29t-121.5 -26t-35.5 -81v-14q0 -51 -49 -51h-152q-49 0 -49 51v26q0 295 414 295q412 0 411 -295v-688q0 -53 -49 -53h-154q-27 0 -36 12.5t-13 40.5l-4 43q-135 -113 -303 -112q-143 0 -219 73.5 t-76 182.5zM190 1196l9 86q6 76 56 117t122 41q68 0 121 -27l86 -41q66 -31 78 -31q33 0 38 50v10q8 45 56 45h88q49 0 43 -60l-6 -79q-6 -78 -53.5 -119t-114.5 -41q-72 0 -131 27l-88 38q-70 31 -78 31q-37 0 -39 -49l-2 -12q-6 -45 -53 -45h-91q-47 0 -41 59zM356 276 q0 -80 103 -79q106 0 225 88v116h-229q-55 0 -77 -23.5t-22 -68.5v-33z" />
<glyph unicode="&#xe4;" horiz-adv-x="1058" d="M94 240v92q0 109 81 183.5t226 74.5h283v131q0 57 -34 86t-120 29t-121.5 -26t-35.5 -81v-14q0 -51 -49 -51h-152q-49 0 -49 51v26q0 295 414 295q412 0 411 -295v-688q0 -53 -49 -53h-154q-27 0 -36 12.5t-13 40.5l-4 43q-135 -113 -303 -112q-143 0 -219 73.5 t-76 182.5zM287 1202v189q0 51 49 51h106q49 0 50 -51v-189q0 -49 -50 -49h-106q-49 0 -49 49zM356 276q0 -80 103 -79q106 0 225 88v116h-229q-55 0 -77 -23.5t-22 -68.5v-33zM575 1202v189q0 51 52 51h106q47 0 47 -51v-189q0 -49 -47 -49h-106q-52 0 -52 49z" />
<glyph unicode="&#xe5;" horiz-adv-x="1058" d="M94 240v92q0 109 81 183.5t226 74.5h283v131q0 57 -34 86t-120 29t-121.5 -26t-35.5 -81v-14q0 -51 -49 -51h-152q-49 0 -49 51v26q0 295 414 295q412 0 411 -295v-688q0 -53 -49 -53h-154q-27 0 -36 12.5t-13 40.5l-4 43q-135 -113 -303 -112q-143 0 -219 73.5 t-76 182.5zM324 1270v69q0 66 55 105t160 39q102 0 157.5 -39t55.5 -105v-69q0 -66 -55.5 -105t-157.5 -39q-104 0 -159.5 39t-55.5 105zM356 276q0 -80 103 -79q106 0 225 88v116h-229q-55 0 -77 -23.5t-22 -68.5v-33zM471 1292q0 -49 68 -49q66 0 65 49v23q0 51 -65 51 q-68 0 -68 -51v-23z" />
<glyph unicode="&#xe6;" horiz-adv-x="1607" d="M92 240v88q0 109 82 182.5t227 73.5h283v151v2q-6 104 -154 105q-86 0 -121.5 -25.5t-35.5 -81.5v-20q0 -49 -51 -49h-150q-51 0 -51 49v28q0 293 414 293q193 0 276 -88q106 88 295 88q412 0 412 -301v-233q0 -47 -48 -47h-524v-162q0 -111 160 -111t160 113v14 q0 49 51 49h141q51 0 51 -49v-24q0 -301 -403 -301q-272 0 -369 125q-160 -125 -348 -125q-145 0 -221 73.5t-76 182.5zM354 274q0 -82 105 -81q98 0 225 94v116h-233q-96 0 -97 -90v-39zM946 633h320v90q0 115 -160 115t-160 -115v-90z" />
<glyph unicode="&#xe7;" horiz-adv-x="1007" d="M100 287v448q0 301 422 301q420 0 420 -301v-35q0 -49 -49 -49h-158q-51 0 -51 49v15q0 57 -36 82.5t-122 25.5t-121.5 -25.5t-35.5 -82.5v-408q0 -57 35.5 -83.5t121.5 -26.5t122 26.5t36 83.5v31q0 51 51 51h158q49 0 49 -51v-51q0 -291 -393 -303l-21 -76h62 q84 0 132 -42t48 -126q0 -86 -48 -129t-132 -43h-244q-51 0 -51 51v41q0 49 51 49h201q39 0 39 31q0 33 -39 33h-154q-84 0 -63 67l43 156q-273 47 -273 291z" />
<glyph unicode="&#xe8;" horiz-adv-x="1024" d="M100 287v448q0 301 422 301q410 0 410 -301v-237q0 -47 -45 -47h-525v-152q0 -57 36 -85t124 -28t124 28t36 85v10q0 51 51 51h144q51 0 51 -51v-22q0 -303 -408 -303q-420 0 -420 303zM246 1435.5q8 14.5 35 14.5h176q47 0 71 -51l99 -201q23 -51 -27 -51h-131 q-43 0 -68 35l-147 217q-16 22 -8 36.5zM362 631h320v90q0 113 -160 113t-160 -113v-90z" />
<glyph unicode="&#xe9;" horiz-adv-x="1024" d="M100 287v448q0 301 422 301q410 0 410 -301v-237q0 -47 -45 -47h-525v-152q0 -57 36 -85t124 -28t124 28t36 85v10q0 51 51 51h144q51 0 51 -51v-22q0 -303 -408 -303q-420 0 -420 303zM362 631h320v90q0 113 -160 113t-160 -113v-90zM393 1198l99 201q25 51 71 51h176 q27 0 35 -14.5t-8 -36.5l-148 -217q-25 -35 -67 -35h-131q-50 0 -27 51z" />
<glyph unicode="&#xea;" horiz-adv-x="1024" d="M100 287v448q0 301 422 301q410 0 410 -301v-237q0 -47 -45 -47h-525v-152q0 -57 36 -85t124 -28t124 28t36 85v10q0 51 51 51h144q51 0 51 -51v-22q0 -303 -408 -303q-420 0 -420 303zM233.5 1161.5q-8.5 14.5 6.5 36.5l149 199q39 53 82 53h96q41 0 82 -51l150 -201 q14 -23 7 -37t-34 -14h-131q-45 0 -70 51l-51 90l-51 -90q-20 -51 -72 -51h-129q-26 0 -34.5 14.5zM362 631h320v90q0 113 -160 113t-160 -113v-90z" />
<glyph unicode="&#xeb;" horiz-adv-x="1024" d="M100 287v448q0 301 422 301q410 0 410 -301v-237q0 -47 -45 -47h-525v-152q0 -57 36 -85t124 -28t124 28t36 85v10q0 51 51 51h144q51 0 51 -51v-22q0 -303 -408 -303q-420 0 -420 303zM270 1202v189q0 51 49 51h107q49 0 49 -51v-189q0 -49 -49 -49h-107q-49 0 -49 49z M362 631h320v90q0 113 -160 113t-160 -113v-90zM559 1202v189q0 51 51 51h107q47 0 47 -51v-189q0 -49 -47 -49h-107q-51 0 -51 49z" />
<glyph unicode="&#xec;" horiz-adv-x="503" d="M-31 1435.5q8 14.5 35 14.5h176q47 0 72 -51l98 -201q23 -51 -26 -51h-131q-43 0 -68 35l-148 217q-16 22 -8 36.5zM115 53v916q0 51 51 51h170q47 0 47 -51v-916q0 -53 -47 -53h-170q-51 0 -51 53z" />
<glyph unicode="&#xed;" horiz-adv-x="505" d="M121 53v916q0 51 51 51h170q47 0 47 -51v-916q0 -53 -47 -53h-170q-51 0 -51 53zM152 1198l98 201q25 51 72 51h176q27 0 35 -14.5t-9 -36.5l-147 -217q-25 -35 -68 -35h-131q-49 0 -26 51z" />
<glyph unicode="&#xee;" horiz-adv-x="499" d="M-31 1161.5q-8 14.5 6 36.5l150 199q39 53 82 53h96q41 0 82 -51l150 -201q14 -23 7 -37t-34 -14h-131q-45 0 -70 51l-51 90l-51 -90q-20 -51 -72 -51h-129q-27 0 -35 14.5zM115 53v916q0 51 51 51h170q47 0 47 -51v-916q0 -53 -47 -53h-170q-51 0 -51 53z" />
<glyph unicode="&#xef;" horiz-adv-x="503" d="M8 1202v189q0 51 49 51h107q49 0 49 -51v-189q0 -49 -49 -49h-107q-49 0 -49 49zM119 53v916q0 51 51 51h170q47 0 47 -51v-916q0 -53 -47 -53h-170q-51 0 -51 53zM297 1202v189q0 51 51 51h107q47 0 47 -51v-189q0 -49 -47 -49h-107q-51 0 -51 49z" />
<glyph unicode="&#xf0;" horiz-adv-x="1163" d="M100 287v450q0 141 75 220t222 79q174 0 320 -110v166q0 10 -6 20l-74 -35q-43 -25 -68 19l-18 30q-25 43 20 68l91 45q-35 23 -115 23h-199q-53 0 -53 53v84q0 51 53 51h199q219 0 327 -88l91 49q45 29 69 -18l19 -31q25 -41 -21 -68l-80 -43q16 -41 17 -104v-860 q0 -303 -426 -303q-219 0 -331 80t-112 223zM369 309q0 -113 174 -112.5t174 112.5v400q-123 94 -236 94q-66 0 -89 -29t-23 -78v-387z" />
<glyph unicode="&#xf1;" horiz-adv-x="1118" d="M121 53v918q0 49 51 49h158q27 0 37 -11.5t12 -37.5l4 -49q139 115 328 114q139 0 218 -75.5t79 -198.5v-709q0 -53 -52 -53h-165q-53 0 -54 53v641q0 57 -23.5 83t-86.5 26q-117 0 -238 -92v-658q0 -53 -47 -53h-170q-51 0 -51 53zM205 1212l8 86q6 76 56 117t122 41 q68 0 121 -26l86 -41q66 -31 78 -31q33 0 39 49v10q8 45 55 45h88q49 0 43 -59l-6 -80q-6 -78 -53 -119t-115 -41q-72 0 -131 27l-88 39q-70 31 -78 31q-37 0 -39 -50l-2 -12q-6 -45 -53 -45h-90q-47 0 -41 59z" />
<glyph unicode="&#xf2;" horiz-adv-x="1085" d="M100 287v448q0 141 112 221t331 80t330.5 -79.5t111.5 -221.5v-448q0 -143 -111.5 -223t-330.5 -80t-331 80t-112 223zM272.5 1435.5q8.5 14.5 34.5 14.5h176q47 0 72 -51l98 -201q23 -51 -26 -51h-131q-43 0 -68 35l-147 217q-17 22 -8.5 36.5zM369 309 q0 -113 174 -112.5t174 112.5v404q0 111 -174 110.5t-174 -110.5v-404z" />
<glyph unicode="&#xf3;" horiz-adv-x="1085" d="M100 287v448q0 141 112 221t331 80t330.5 -79.5t111.5 -221.5v-448q0 -143 -111.5 -223t-330.5 -80t-331 80t-112 223zM369 309q0 -113 174 -112.5t174 112.5v404q0 111 -174 110.5t-174 -110.5v-404zM430 1198l98 201q25 51 72 51h176q27 0 35 -14.5t-8 -36.5l-148 -217 q-25 -35 -67 -35h-131q-50 0 -27 51z" />
<glyph unicode="&#xf4;" horiz-adv-x="1085" d="M100 287v448q0 141 112 221t331 80t330.5 -79.5t111.5 -221.5v-448q0 -143 -111.5 -223t-330.5 -80t-331 80t-112 223zM258 1161.5q-8 14.5 6 36.5l150 199q39 53 82 53h96q41 0 82 -51l149 -201q14 -23 7 -37t-33 -14h-131q-45 0 -70 51l-51 90l-51 -90q-20 -51 -72 -51 h-129q-27 0 -35 14.5zM369 309q0 -113 174 -112.5t174 112.5v404q0 111 -174 110.5t-174 -110.5v-404z" />
<glyph unicode="&#xf5;" horiz-adv-x="1085" d="M100 287v448q0 141 112 221t331 80t330.5 -79.5t111.5 -221.5v-448q0 -143 -111.5 -223t-330.5 -80t-331 80t-112 223zM199 1196l8 86q6 76 56 117t122 41q68 0 121 -27l86 -41q66 -31 78 -31q33 0 39 50v10q8 45 55 45h88q49 0 43 -60l-6 -79q-6 -78 -53.5 -119 t-114.5 -41q-72 0 -131 27l-88 38q-70 31 -78 31q-37 0 -39 -49l-2 -12q-6 -45 -53 -45h-90q-47 0 -41 59zM369 309q0 -113 174 -112.5t174 112.5v404q0 111 -174 110.5t-174 -110.5v-404z" />
<glyph unicode="&#xf6;" horiz-adv-x="1085" d="M100 287v448q0 141 112 221t331 80t330.5 -79.5t111.5 -221.5v-448q0 -143 -111.5 -223t-330.5 -80t-331 80t-112 223zM297 1202v189q0 51 49 51h107q49 0 49 -51v-189q0 -49 -49 -49h-107q-49 0 -49 49zM369 309q0 -113 174 -112.5t174 112.5v404q0 111 -174 110.5 t-174 -110.5v-404zM586 1202v189q0 51 51 51h106q47 0 48 -51v-189q0 -49 -48 -49h-106q-51 0 -51 49z" />
<glyph unicode="&#xf7;" horiz-adv-x="1189" d="M121 549v123q0 49 51 49h844q51 0 51 -49v-123q0 -49 -51 -49h-844q-51 0 -51 49zM457 162v166q0 51 51 51h174q49 0 49 -51v-166q0 -51 -49 -51h-174q-51 0 -51 51zM457 893v166q0 51 51 51h174q49 0 49 -51v-166q0 -51 -49 -51h-174q-51 0 -51 51z" />
<glyph unicode="&#xf8;" horiz-adv-x="1085" d="M100 287v448q0 141 112 221t331 80q100 0 192 -20l15 24q33 61 73 62h72q51 0 16 -62l-43 -82q117 -78 117 -223v-448q0 -143 -111.5 -223t-330.5 -80q-104 0 -185 18l-8 -18q-18 -35 -34.5 -48.5t-47.5 -13.5h-65q-25 0 -26 21.5t11 40.5l37 69q-125 80 -125 234z M369 322l260 491q-41 10 -86 10q-174 0 -174 -110v-391zM465 203q35 -6 78 -6q174 0 174 112v365z" />
<glyph unicode="&#xf9;" horiz-adv-x="1105" d="M111 258v711q0 51 49 51h168q51 0 51 -51v-643q0 -57 24.5 -83t85.5 -26q113 0 226 90v662q0 51 49 51h170q49 0 49 -51v-918q0 -51 -49 -51h-158q-27 0 -37 11.5t-14 39.5l-4 45q-127 -113 -315 -112q-137 0 -216 75.5t-79 198.5zM270.5 1435.5q8.5 14.5 34.5 14.5h176 q47 0 72 -51l98 -201q23 -51 -26 -51h-131q-43 0 -68 35l-147 217q-17 22 -8.5 36.5z" />
<glyph unicode="&#xfa;" horiz-adv-x="1105" d="M111 258v711q0 51 49 51h168q51 0 51 -51v-643q0 -57 24.5 -83t85.5 -26q113 0 226 90v662q0 51 49 51h170q49 0 49 -51v-918q0 -51 -49 -51h-158q-27 0 -37 11.5t-14 39.5l-4 45q-127 -113 -315 -112q-137 0 -216 75.5t-79 198.5zM438 1198l99 201q25 51 71 51h176 q27 0 35 -14.5t-8 -36.5l-147 -217q-25 -35 -68 -35h-131q-50 0 -27 51z" />
<glyph unicode="&#xfb;" horiz-adv-x="1105" d="M111 258v711q0 51 49 51h168q51 0 51 -51v-643q0 -57 24.5 -83t85.5 -26q113 0 226 90v662q0 51 49 51h170q49 0 49 -51v-918q0 -51 -49 -51h-158q-27 0 -37 11.5t-14 39.5l-4 45q-127 -113 -315 -112q-137 0 -216 75.5t-79 198.5zM239.5 1161.5q-8.5 14.5 6.5 36.5 l149 199q39 53 82 53h96q41 0 82 -51l150 -201q14 -23 7 -37t-34 -14h-131q-45 0 -69 51l-52 90l-51 -90q-20 -51 -72 -51h-129q-26 0 -34.5 14.5z" />
<glyph unicode="&#xfc;" horiz-adv-x="1105" d="M111 258v711q0 51 49 51h168q51 0 51 -51v-643q0 -57 24.5 -83t85.5 -26q113 0 226 90v662q0 51 49 51h170q49 0 49 -51v-918q0 -51 -49 -51h-158q-27 0 -37 11.5t-14 39.5l-4 45q-127 -113 -315 -112q-137 0 -216 75.5t-79 198.5zM295 1202v189q0 51 49 51h107 q49 0 49 -51v-189q0 -49 -49 -49h-107q-49 0 -49 49zM584 1202v189q0 51 51 51h106q47 0 47 -51v-189q0 -49 -47 -49h-106q-51 0 -51 49z" />
<glyph unicode="&#xfd;" horiz-adv-x="970" d="M23 969q-8 25 6 38t41 13h170q41 0 57 -51l154 -469q23 -68 34 -174q18 88 43 166l162 477q8 27 19.5 39t35.5 12h156q29 0 43 -13.5t6 -37.5l-452 -1329q-12 -51 -58 -52h-123q-63 0 -49 52l101 333zM387 1198l98 201q25 51 72 51h176q27 0 35 -14.5t-8 -36.5l-148 -217 q-25 -35 -67 -35h-131q-50 0 -27 51z" />
<glyph unicode="&#xfe;" horiz-adv-x="1105" d="M121 -360v1738q0 53 51 54h168q49 0 49 -54v-452q145 111 322 110q147 0 222 -78.5t75 -220.5v-454q0 -141 -75 -220t-222 -79q-172 0 -322 108v-452q0 -51 -47 -52h-170q-51 1 -51 52zM389 309q129 -92 238 -92q63 0 86.5 28.5t23.5 78.5v372q0 49 -23.5 78t-86.5 29 q-115 0 -238 -94v-400z" />
<glyph unicode="&#xff;" horiz-adv-x="970" d="M23 969q-8 25 6 38t41 13h170q41 0 57 -51l154 -469q23 -68 34 -174q18 88 43 166l162 477q8 27 19.5 39t35.5 12h156q29 0 43 -13.5t6 -37.5l-452 -1329q-12 -51 -58 -52h-123q-63 0 -49 52l101 333zM242 1202v189q0 51 49 51h106q49 0 49 -51v-189q0 -49 -49 -49h-106 q-49 0 -49 49zM530 1202v189q0 51 52 51h106q47 0 47 -51v-189q0 -49 -47 -49h-106q-52 0 -52 49z" />
<glyph unicode="&#x152;" horiz-adv-x="1744" d="M121 317v758q0 143 119.5 238.5t377.5 95.5q119 0 224 -45q10 29 49 29h698q53 0 53 -50v-129q0 -49 -53 -49h-473v-334h440q51 0 52 -49v-120q0 -49 -52 -50h-440v-385h496q51 0 51 -49v-129q0 -49 -51 -49h-723q-41 0 -47 29q-96 -45 -224 -45q-258 0 -377.5 95 t-119.5 238zM397 365q0 -154 221 -154q102 0 161 37t61 108v672q0 154 -221.5 154t-221.5 -154v-663z" />
<glyph unicode="&#x153;" horiz-adv-x="1640" d="M100 285v450q0 141 112 221t331 80q197 0 291 -69q104 70 305 69q412 0 411 -301v-233q0 -47 -47 -47h-524v-160q0 -113 159.5 -113t159.5 113v14q0 49 52 49h141q51 0 51 -49v-24q0 -301 -403 -301q-199 0 -305 67q-96 -68 -291 -67q-219 0 -331 80t-112 221zM369 307 q0 -113 174 -112.5t174 112.5v406q0 113 -174 112.5t-174 -112.5v-406zM979 633h319v90q0 115 -159.5 115t-159.5 -115v-90z" />
<glyph unicode="&#x178;" horiz-adv-x="1116" d="M29.5 1378.5q9.5 14.5 36.5 14.5h202q41 0 62 -52l194 -467q12 -33 35 -108q20 72 37 108l217 467q23 51 59 52h177q27 0 38 -13.5t-2 -38.5l-387 -809v-481q0 -51 -49 -51h-178q-51 0 -51 51v449l-389 841q-11 23 -1.5 37.5zM309 1530v188q0 51 49 51h107q49 0 49 -51 v-188q0 -49 -49 -49h-107q-49 0 -49 49zM598 1530v188q0 51 51 51h107q47 0 47 -51v-188q0 -49 -47 -49h-107q-51 0 -51 49z" />
<glyph unicode="&#x2c6;" horiz-adv-x="724" d="M76 1161.5q-8 14.5 6 36.5l149 199q39 53 82 53h97q41 0 82 -51l149 -201q14 -23 7 -37t-34 -14h-131q-45 0 -69 51l-52 90l-51 -90q-20 -51 -71 -51h-129q-27 0 -35 14.5z" />
<glyph unicode="&#x2dc;" horiz-adv-x="835" d="M68 1196l8 86q6 76 56 117t122 41q68 0 121 -27l86 -41q66 -31 78 -31q33 0 39 50v10q8 45 55 45h88q49 0 43 -60l-6 -79q-6 -78 -53.5 -119t-114.5 -41q-72 0 -131 27l-88 38q-70 31 -78 31q-37 0 -39 -49l-2 -12q-6 -45 -53 -45h-90q-47 0 -41 59z" />
<glyph unicode="&#x2000;" horiz-adv-x="905" />
<glyph unicode="&#x2001;" horiz-adv-x="1810" />
<glyph unicode="&#x2002;" horiz-adv-x="905" />
<glyph unicode="&#x2003;" horiz-adv-x="1810" />
<glyph unicode="&#x2004;" horiz-adv-x="602" />
<glyph unicode="&#x2005;" horiz-adv-x="452" />
<glyph unicode="&#x2006;" horiz-adv-x="301" />
<glyph unicode="&#x2007;" horiz-adv-x="301" />
<glyph unicode="&#x2008;" horiz-adv-x="225" />
<glyph unicode="&#x2009;" horiz-adv-x="360" />
<glyph unicode="&#x200a;" horiz-adv-x="100" />
<glyph unicode="&#x2010;" horiz-adv-x="892" d="M121 530v121q0 49 51 49h549q51 0 51 -49v-121q0 -49 -51 -49h-549q-51 0 -51 49z" />
<glyph unicode="&#x2011;" horiz-adv-x="892" d="M121 530v121q0 49 51 49h549q51 0 51 -49v-121q0 -49 -51 -49h-549q-51 0 -51 49z" />
<glyph unicode="&#x2012;" horiz-adv-x="892" d="M121 530v121q0 49 51 49h549q51 0 51 -49v-121q0 -49 -51 -49h-549q-51 0 -51 49z" />
<glyph unicode="&#x2013;" horiz-adv-x="1091" d="M121 530v121q0 49 51 49h748q51 0 51 -49v-121q0 -49 -51 -49h-748q-51 0 -51 49z" />
<glyph unicode="&#x2014;" horiz-adv-x="1726" d="M121 530v121q0 49 51 49h1382q51 0 52 -49v-121q0 -49 -52 -49h-1382q-51 0 -51 49z" />
<glyph unicode="&#x2018;" horiz-adv-x="593" d="M119 1085v152q0 233 295 303q49 12 65 -33l39 -114q16 -47 -33 -64q-53 -18 -72.5 -42.5t-19.5 -63.5v-138q0 -51 -51 -51h-176q-47 0 -47 51z" />
<glyph unicode="&#x2019;" horiz-adv-x="593" d="M76 1182q-16 47 33 63q53 18 72.5 42t19.5 65v137q0 51 51 51h176q47 0 47 -51v-152q0 -231 -295 -303q-49 -12 -65 33z" />
<glyph unicode="&#x201a;" horiz-adv-x="593" d="M76 -90q-16 47 33 63q53 18 72.5 43t19.5 64v137q0 51 51 51h176q47 0 47 -51v-151q0 -233 -295 -304q-49 -12 -65 33z" />
<glyph unicode="&#x201c;" horiz-adv-x="1040" d="M119 1085v152q0 233 295 303q49 12 65 -33l39 -114q16 -47 -33 -64q-53 -18 -72.5 -42.5t-19.5 -63.5v-138q0 -51 -51 -51h-176q-47 0 -47 51zM565 1085v152q0 233 295 303q49 12 66 -33l39 -114q16 -47 -33 -64q-53 -18 -72.5 -42.5t-19.5 -63.5v-138q0 -51 -52 -51 h-176q-47 0 -47 51z" />
<glyph unicode="&#x201d;" horiz-adv-x="1040" d="M76 1182q-16 47 33 63q53 18 72.5 42t19.5 65v137q0 51 51 51h176q47 0 47 -51v-152q0 -231 -295 -303q-49 -12 -65 33zM522 1182q-16 47 33 63q53 18 72.5 42t19.5 65v137q0 51 51 51h176q47 0 48 -51v-152q0 -231 -295 -303q-49 -12 -66 33z" />
<glyph unicode="&#x201e;" horiz-adv-x="1040" d="M76 -90q-16 47 33 63q53 18 72.5 43t19.5 64v137q0 51 51 51h176q47 0 47 -51v-151q0 -233 -295 -304q-49 -12 -65 33zM522 -90q-16 47 33 63q53 18 72.5 43t19.5 64v137q0 51 51 51h176q47 0 48 -51v-151q0 -233 -295 -304q-49 -12 -66 33z" />
<glyph unicode="&#x2022;" horiz-adv-x="559" d="M143 408v297q0 53 50 53h176q47 0 47 -53v-297q0 -51 -47 -52h-176q-50 1 -50 52z" />
<glyph unicode="&#x2026;" horiz-adv-x="1525" d="M119 51v166q0 51 51 51h174q49 0 49 -51v-166q0 -51 -49 -51h-174q-51 0 -51 51zM627 51v166q0 51 51 51h174q49 0 49 -51v-166q0 -51 -49 -51h-174q-51 0 -51 51zM1133 51v166q0 51 51 51h174q49 0 49 -51v-166q0 -51 -49 -51h-174q-51 0 -51 51z" />
<glyph unicode="&#x202f;" horiz-adv-x="360" />
<glyph unicode="&#x2039;" horiz-adv-x="837" d="M121 408v190q0 31 45 55l498 275q23 10 37 -5.5t14 -43.5v-164q0 -41 -51 -58l-328 -155l328 -154q14 -6 20 -9t15.5 -10t12.5 -16.5t3 -21.5v-164q0 -63 -51 -49l-498 272q-45 25 -45 58z" />
<glyph unicode="&#x203a;" horiz-adv-x="837" d="M121 127v164q0 16 8 28.5t15.5 16.5t27.5 12l328 154l-328 155q-51 16 -51 58v164q0 29 14.5 44t36.5 5l498 -275q45 -25 45 -55v-190q0 -33 -45 -58l-498 -272q-51 -14 -51 49z" />
<glyph unicode="&#x205f;" horiz-adv-x="452" />
<glyph unicode="&#x20ac;" horiz-adv-x="1351" d="M137 518v72q0 49 51 49h72v109h-72q-51 0 -51 51v71q0 49 51 50h72v155q0 145 111.5 239.5t369.5 94.5t370 -94t112 -240v-98q0 -51 -47 -51h-170q-51 0 -52 51v49q0 154 -209 154q-207 0 -206 -154v-106h192q51 0 51 -50v-71q0 -51 -51 -51h-192v-109h192q51 0 51 -49 v-72q0 -51 -51 -51h-192v-100q0 -154 206 -154q209 0 209 154v77q0 51 52 52h170q47 0 47 -52v-127q0 -145 -112 -239t-370 -94t-369.5 94t-111.5 239v150h-72q-51 0 -51 51z" />
<glyph unicode="&#x2122;" horiz-adv-x="1886" d="M143 1245v109q0 39 43 39h562q43 0 43 -39v-109q0 -41 -43 -41h-166v-604q0 -43 -41 -43h-146q-41 0 -41 43v604h-168q-25 0 -34 9t-9 32zM883 600v750q0 43 43 43h127q29 0 37 -19l192 -375q10 -20 31 -69q14 41 28 65l187 379q8 18 39 19h135q41 0 41 -43v-750 q0 -43 -41 -43h-135q-41 0 -41 43v379l-21 -59l-88 -195q-20 -41 -55 -41h-96q-37 0 -58 41l-94 199q-14 25 -20 63v-387q0 -43 -41 -43h-127q-43 0 -43 43z" />
<glyph unicode="&#xe000;" horiz-adv-x="1020" d="M0 1020h1020v-1020h-1020v1020z" />
<glyph unicode="&#xfb01;" horiz-adv-x="1218" d="M39 854v102q0 25 11 35t38 15l105 10h6v112q0 143 110.5 223.5t329.5 80.5h395q51 0 51 -52v-118q0 -51 -51 -52h-395q-170 0 -170 -110v-84h565q51 0 51 -47v-916q0 -53 -47 -53h-170q-51 0 -51 53v750h-348v-750q0 -53 -49 -53h-170q-51 0 -51 53v750h-111 q-49 0 -49 51z" />
<glyph unicode="&#xfb02;" horiz-adv-x="1218" d="M39 854v102q0 25 11 35t38 15l105 10h6v112q0 143 110.5 223.5t329.5 80.5h395q51 0 51 -52v-1327q0 -53 -47 -53h-170q-51 0 -51 53v1157h-178q-170 0 -170 -110v-84h170q51 0 51 -47v-115q0 -51 -51 -51h-170v-750q0 -53 -49 -53h-170q-51 0 -51 53v750h-111 q-49 0 -49 51z" />
<glyph unicode="&#xfb03;" horiz-adv-x="1941" d="M1551 53v916q0 51 51 51h170q47 0 47 -51v-916q0 -53 -47 -53h-170q-51 0 -51 53zM1551 1202v176q0 53 51 54h170q47 0 47 -54v-176q0 -49 -47 -49h-170q-51 0 -51 49zM754 854v102q0 25 11 35t38 15l105 10h6v127q0 141 110.5 221t329.5 80h18q51 0 52 -49v-119 q0 -53 -52 -53h-18q-170 0 -170 -111v-96h170q51 0 51 -47v-115q0 -51 -51 -51h-170v-750q0 -53 -49 -53h-170q-51 0 -51 53v750h-111q-49 0 -49 51zM39 854v102q0 25 11 35t38 15l105 10h6v127q0 141 110.5 221t329.5 80h18q51 0 52 -49v-119q0 -53 -52 -53h-18 q-170 0 -170 -111v-96h170q51 0 51 -47v-115q0 -51 -51 -51h-170v-750q0 -53 -49 -53h-170q-51 0 -51 53v750h-111q-49 0 -49 51z" />
<glyph unicode="&#xfb04;" horiz-adv-x="1941" d="M1551 53v1325q0 53 51 54h170q47 0 47 -54v-1325q0 -53 -47 -53h-170q-51 0 -51 53zM754 854v102q0 25 11 35t38 15l105 10h6v127q0 141 110.5 221t329.5 80h18q51 0 52 -49v-119q0 -53 -52 -53h-18q-170 0 -170 -111v-96h170q51 0 51 -47v-115q0 -51 -51 -51h-170v-750 q0 -53 -49 -53h-170q-51 0 -51 53v750h-111q-49 0 -49 51zM39 854v102q0 25 11 35t38 15l105 10h6v127q0 141 110.5 221t329.5 80h18q51 0 52 -49v-119q0 -53 -52 -53h-18q-170 0 -170 -111v-96h170q51 0 51 -47v-115q0 -51 -51 -51h-170v-750q0 -53 -49 -53h-170 q-51 0 -51 53v750h-111q-49 0 -49 51z" />
</font>
</defs>
</svg>
